<svg width="40" height="40" viewBox="0 0 40 40" fill="none" xmlns="http://www.w3.org/2000/svg">
<path d="M20 40C31.0457 40 40 31.0457 40 20C40 8.9543 31.0457 0 20 0C8.9543 0 0 8.9543 0 20C0 31.0457 8.9543 40 20 40Z" fill="black" fill-opacity="0.04"/>
<path d="M22.5215 18.0781L22.293 20.3125H20.4902V26.8125H17.8242V20.3125H16.4785V18.0781H17.7988V16.7324C17.7988 16.2754 17.8411 15.8691 17.9258 15.5137C18.0273 15.1413 18.1966 14.8366 18.4336 14.5996C18.6706 14.3457 18.9668 14.151 19.3223 14.0156C19.6947 13.8802 20.1517 13.8125 20.6934 13.8125H22.4961V16.0469H21.3789C21.1589 16.0469 20.9896 16.0723 20.8711 16.123C20.7526 16.1569 20.6595 16.2161 20.5918 16.3008C20.541 16.3685 20.5072 16.4616 20.4902 16.5801C20.4733 16.6816 20.4648 16.8086 20.4648 16.9609V18.0781H22.4961H22.5215Z" fill="#757575"/>
</svg>
