<svg width="40" height="40" viewBox="0 0 40 40" fill="none" xmlns="http://www.w3.org/2000/svg">
<path d="M20 40C31.0457 40 40 31.0457 40 20C40 8.9543 31.0457 0 20 0C8.9543 0 0 8.9543 0 20C0 31.0457 8.9543 40 20 40Z" fill="#00ADEE"/>
<path d="M25.375 17.6719C25.375 17.7057 25.375 17.7396 25.375 17.7734C25.3919 17.7904 25.3919 17.8158 25.375 17.8496C25.375 17.8835 25.375 17.9173 25.375 17.9512C25.3919 17.9681 25.3919 17.9935 25.375 18.0273C25.3919 18.8906 25.2311 19.7793 24.8926 20.6934C24.554 21.6074 24.0632 22.4284 23.4199 23.1562C22.7936 23.8672 22.0065 24.4596 21.0586 24.9336C20.1107 25.3906 19.0273 25.6107 17.8086 25.5938C17.4193 25.6107 17.0469 25.5938 16.6914 25.543C16.3359 25.4753 15.9805 25.3991 15.625 25.3145C15.2695 25.2129 14.931 25.0859 14.6094 24.9336C14.3047 24.7643 14 24.5951 13.6953 24.4258C13.763 24.4089 13.8138 24.4089 13.8477 24.4258C13.8984 24.4427 13.9577 24.4512 14.0254 24.4512C14.0931 24.4342 14.1439 24.4342 14.1777 24.4512C14.2285 24.4512 14.2878 24.4427 14.3555 24.4258C14.6602 24.4427 14.9648 24.4258 15.2695 24.375C15.5742 24.3073 15.862 24.2311 16.1328 24.1465C16.4036 24.0618 16.666 23.9434 16.9199 23.791C17.1908 23.6387 17.4362 23.4779 17.6562 23.3086C17.3685 23.2917 17.0892 23.2409 16.8184 23.1562C16.5475 23.0716 16.3021 22.9447 16.082 22.7754C15.8789 22.5892 15.6927 22.3945 15.5234 22.1914C15.3711 21.9714 15.2611 21.7174 15.1934 21.4297C15.2103 21.4635 15.2441 21.4805 15.2949 21.4805C15.3457 21.4635 15.388 21.4635 15.4219 21.4805C15.4557 21.4974 15.498 21.5059 15.5488 21.5059C15.5996 21.4889 15.6335 21.4889 15.6504 21.5059C15.735 21.4889 15.8027 21.4889 15.8535 21.5059C15.9043 21.5059 15.9635 21.4974 16.0312 21.4805C16.099 21.4635 16.1582 21.4551 16.209 21.4551C16.2598 21.4382 16.319 21.4212 16.3867 21.4043C16.0651 21.3535 15.7773 21.2435 15.5234 21.0742C15.2695 20.9049 15.041 20.7103 14.8379 20.4902C14.6517 20.2702 14.5078 20.0163 14.4062 19.7285C14.3047 19.4238 14.2454 19.1191 14.2285 18.8145C14.2454 18.7806 14.2454 18.7721 14.2285 18.7891C14.2454 18.7721 14.2454 18.7637 14.2285 18.7637C14.2285 18.7637 14.237 18.7552 14.2539 18.7383C14.3216 18.806 14.4062 18.8568 14.5078 18.8906C14.6094 18.9245 14.7025 18.9583 14.7871 18.9922C14.8887 19.026 14.9987 19.0514 15.1172 19.0684C15.2357 19.0684 15.3372 19.0853 15.4219 19.1191C15.2695 18.9837 15.1087 18.8398 14.9395 18.6875C14.7871 18.5352 14.6602 18.3574 14.5586 18.1543C14.474 17.9512 14.3978 17.748 14.3301 17.5449C14.2624 17.3418 14.237 17.1133 14.2539 16.8594C14.237 16.7578 14.237 16.6478 14.2539 16.5293C14.2878 16.3939 14.3132 16.2754 14.3301 16.1738C14.3639 16.0723 14.4062 15.9622 14.457 15.8438C14.5078 15.7253 14.5586 15.6237 14.6094 15.5391C14.9479 15.9284 15.3118 16.2923 15.7012 16.6309C16.1074 16.9694 16.5475 17.2572 17.0215 17.4941C17.4954 17.7311 17.9863 17.9258 18.4941 18.0781C19.002 18.2135 19.5436 18.2897 20.1191 18.3066C20.0853 18.2728 20.0684 18.2305 20.0684 18.1797C20.0853 18.112 20.0853 18.0612 20.0684 18.0273C20.0514 17.9766 20.043 17.9258 20.043 17.875C20.043 17.8073 20.0345 17.7565 20.0176 17.7227C20.0345 17.3333 20.1107 16.9863 20.2461 16.6816C20.3815 16.36 20.5677 16.0807 20.8047 15.8438C21.0586 15.5898 21.3464 15.3952 21.668 15.2598C21.9896 15.1243 22.3366 15.0482 22.709 15.0312C22.8952 15.0482 23.0814 15.0736 23.2676 15.1074C23.4538 15.1413 23.623 15.2005 23.7754 15.2852C23.9447 15.3529 24.1055 15.4375 24.2578 15.5391C24.4102 15.6406 24.5371 15.7591 24.6387 15.8945C24.8079 15.8607 24.9603 15.8268 25.0957 15.793C25.2311 15.7591 25.375 15.7083 25.5273 15.6406C25.6797 15.5729 25.8151 15.5137 25.9336 15.4629C26.069 15.3952 26.2129 15.319 26.3652 15.2344C26.2975 15.4036 26.2298 15.556 26.1621 15.6914C26.0944 15.8268 26.0013 15.9622 25.8828 16.0977C25.7812 16.2161 25.6712 16.3262 25.5527 16.4277C25.4512 16.5293 25.3242 16.6309 25.1719 16.7324C25.3073 16.6986 25.4342 16.6732 25.5527 16.6562C25.6882 16.6393 25.8236 16.6139 25.959 16.5801C26.0944 16.5293 26.2214 16.487 26.3398 16.4531C26.4583 16.4193 26.5853 16.36 26.7207 16.2754C26.6191 16.4277 26.5176 16.5632 26.416 16.6816C26.3314 16.8001 26.2214 16.9271 26.0859 17.0625C25.9674 17.181 25.849 17.291 25.7305 17.3926C25.6289 17.4772 25.502 17.5788 25.3496 17.6973L25.375 17.6719Z" fill="#FBFBFD"/>
</svg>
