<svg width="40" height="40" viewBox="0 0 40 40" fill="none" xmlns="http://www.w3.org/2000/svg">
<path d="M20 40C31.0457 40 40 31.0457 40 20C40 8.9543 31.0457 0 20 0C8.9543 0 0 8.9543 0 20C0 31.0457 8.9543 40 20 40Z" fill="black" fill-opacity="0.04"/>
<path d="M24.7793 15.5645C24.6608 15.429 24.5169 15.3275 24.3477 15.2598C24.1953 15.1751 24.026 15.1159 23.8398 15.082C23.6536 15.0482 23.4674 15.0397 23.2812 15.0566C23.0951 15.0566 22.9173 15.0651 22.748 15.082C22.6296 15.099 22.4349 15.1667 22.1641 15.2852C21.9102 15.4036 21.6309 15.5729 21.3262 15.793C21.0384 16.013 20.7591 16.2923 20.4883 16.6309C20.2174 16.9525 20.0059 17.3503 19.8535 17.8242C20.1243 17.8073 20.3613 17.8073 20.5645 17.8242C20.7676 17.8411 20.9284 17.8919 21.0469 17.9766C21.1823 18.0612 21.2754 18.1966 21.3262 18.3828C21.3939 18.5521 21.4108 18.7806 21.377 19.0684C21.36 19.1868 21.3346 19.3138 21.3008 19.4492C21.2669 19.5677 21.2246 19.6947 21.1738 19.8301C21.123 19.9655 21.0638 20.1009 20.9961 20.2363C20.9453 20.3548 20.8861 20.4818 20.8184 20.6172C20.7337 20.7695 20.6322 20.9388 20.5137 21.125C20.4121 21.3112 20.2852 21.472 20.1328 21.6074C19.9974 21.7428 19.8366 21.819 19.6504 21.8359C19.4811 21.8529 19.3034 21.7513 19.1172 21.5312C18.931 21.3451 18.7871 21.125 18.6855 20.8711C18.6009 20.6003 18.5332 20.321 18.4824 20.0332C18.4486 19.7454 18.4147 19.4577 18.3809 19.1699C18.3639 18.8652 18.3385 18.5944 18.3047 18.3574C18.2708 18.222 18.237 18.0866 18.2031 17.9512C18.1862 17.7988 18.1608 17.6465 18.127 17.4941C18.11 17.3418 18.0846 17.1895 18.0508 17.0371C18.0169 16.8848 17.9746 16.7324 17.9238 16.5801C17.89 16.4616 17.8392 16.3431 17.7715 16.2246C17.7207 16.0892 17.653 15.9707 17.5684 15.8691C17.4837 15.7676 17.3906 15.6745 17.2891 15.5898C17.2044 15.5052 17.1113 15.446 17.0098 15.4121C16.8913 15.3783 16.7643 15.3698 16.6289 15.3867C16.5104 15.3867 16.3835 15.4036 16.248 15.4375C16.1296 15.4544 16.0111 15.4883 15.8926 15.5391C15.791 15.5898 15.6979 15.6406 15.6133 15.6914C15.3594 15.8438 15.1139 16.013 14.877 16.1992C14.6569 16.3854 14.4368 16.5801 14.2168 16.7832C13.9967 16.9694 13.7682 17.1641 13.5312 17.3672C13.3112 17.5534 13.0742 17.7396 12.8203 17.9258V18.002C12.9049 18.0527 12.9642 18.1035 12.998 18.1543C13.0488 18.2051 13.0827 18.2559 13.0996 18.3066C13.1335 18.3574 13.1589 18.3997 13.1758 18.4336C13.2096 18.4674 13.2604 18.4928 13.3281 18.5098C13.4974 18.5267 13.6582 18.5098 13.8105 18.459C13.9629 18.4082 14.1068 18.3659 14.2422 18.332C14.3776 18.2982 14.5046 18.2982 14.623 18.332C14.7585 18.349 14.8854 18.4421 15.0039 18.6113C15.0716 18.7298 15.1224 18.8483 15.1562 18.9668C15.207 19.0684 15.2493 19.1784 15.2832 19.2969C15.3171 19.4154 15.3509 19.5339 15.3848 19.6523C15.4186 19.7708 15.4525 19.8893 15.4863 20.0078C15.554 20.1602 15.6048 20.321 15.6387 20.4902C15.6895 20.6426 15.7402 20.8034 15.791 20.9727C15.8418 21.1419 15.8841 21.3197 15.918 21.5059C15.9688 21.6751 16.0195 21.8444 16.0703 22.0137C16.138 22.3184 16.2142 22.6569 16.2988 23.0293C16.4004 23.3848 16.5189 23.7318 16.6543 24.0703C16.7897 24.3919 16.9421 24.6882 17.1113 24.959C17.2975 25.2129 17.526 25.3906 17.7969 25.4922C17.9323 25.5599 18.0762 25.5938 18.2285 25.5938C18.3978 25.5768 18.5586 25.5514 18.7109 25.5176C18.8802 25.4837 19.0326 25.4329 19.168 25.3652C19.3203 25.2975 19.4473 25.2383 19.5488 25.1875C19.8197 25.0182 20.0736 24.8405 20.3105 24.6543C20.5645 24.4512 20.8014 24.2396 21.0215 24.0195C21.2585 23.7995 21.4701 23.571 21.6562 23.334C21.8594 23.097 22.054 22.86 22.2402 22.623C22.6634 22.0475 23.0358 21.472 23.3574 20.8965C23.696 20.304 23.9753 19.7539 24.1953 19.2461C24.4323 18.7214 24.6185 18.2643 24.7539 17.875C24.8893 17.4857 24.974 17.1979 25.0078 17.0117C25.0247 16.8763 25.0332 16.7493 25.0332 16.6309C25.0501 16.4954 25.0501 16.3685 25.0332 16.25C25.0332 16.1315 25.0078 16.013 24.957 15.8945C24.9062 15.776 24.847 15.666 24.7793 15.5645Z" fill="#757575"/>
</svg>
