<svg width="41" height="40" viewBox="0 0 41 40" fill="none" xmlns="http://www.w3.org/2000/svg">
<path d="M20.8398 40C31.8855 40 40.8398 31.0457 40.8398 20C40.8398 8.9543 31.8855 0 20.8398 0C9.79415 0 0.839844 8.9543 0.839844 20C0.839844 31.0457 9.79415 40 20.8398 40Z" fill="black" fill-opacity="0.04"/>
<path d="M26.502 18.5605C26.502 19.2884 26.4004 19.9655 26.1973 20.5918C26.0111 21.2181 25.7402 21.7598 25.3848 22.2168C25.0293 22.6569 24.6061 23.0124 24.1152 23.2832C23.6243 23.5371 23.0827 23.6556 22.4902 23.6387C22.2871 23.6556 22.084 23.6387 21.8809 23.5879C21.6947 23.5202 21.5169 23.4525 21.3477 23.3848C21.1953 23.3001 21.0599 23.1986 20.9414 23.0801C20.8229 22.9616 20.7298 22.8516 20.6621 22.75C20.5605 23.1562 20.4759 23.4948 20.4082 23.7656C20.3405 24.0365 20.2812 24.248 20.2305 24.4004C20.1966 24.5358 20.1712 24.6374 20.1543 24.7051C20.1543 24.7559 20.1543 24.7728 20.1543 24.7559C20.1035 24.9082 20.0527 25.0521 20.002 25.1875C19.9512 25.3229 19.8919 25.4668 19.8242 25.6191C19.7565 25.7546 19.6803 25.8815 19.5957 26C19.528 26.1185 19.4603 26.237 19.3926 26.3555C19.1895 26.4909 19.0286 26.5501 18.9102 26.5332C18.8086 26.5332 18.724 26.4909 18.6562 26.4062C18.6055 26.3216 18.5716 26.237 18.5547 26.1523C18.5378 26.0846 18.5293 26.0423 18.5293 26.0254C18.5124 25.9069 18.5039 25.7799 18.5039 25.6445C18.5039 25.4922 18.5039 25.3483 18.5039 25.2129C18.5208 25.0605 18.5378 24.9082 18.5547 24.7559C18.5885 24.6035 18.6224 24.4681 18.6562 24.3496C18.6562 24.3327 18.6647 24.2819 18.6816 24.1973C18.7155 24.0957 18.7663 23.901 18.834 23.6133C18.9017 23.3086 18.9948 22.8939 19.1133 22.3691C19.2318 21.8444 19.3926 21.1504 19.5957 20.2871C19.5449 20.1855 19.5026 20.0586 19.4688 19.9062C19.4349 19.7539 19.4095 19.627 19.3926 19.5254C19.3757 19.4069 19.3672 19.3053 19.3672 19.2207C19.3672 19.1361 19.3672 19.1022 19.3672 19.1191C19.3672 18.8314 19.401 18.5775 19.4688 18.3574C19.5534 18.1204 19.6549 17.9173 19.7734 17.748C19.9089 17.5618 20.0612 17.4264 20.2305 17.3418C20.4167 17.2402 20.6029 17.181 20.7891 17.1641C20.9583 17.181 21.1022 17.2148 21.2207 17.2656C21.3561 17.3164 21.4661 17.401 21.5508 17.5195C21.6354 17.638 21.6947 17.765 21.7285 17.9004C21.7793 18.0189 21.8047 18.1628 21.8047 18.332C21.8047 18.4844 21.7793 18.6706 21.7285 18.8906C21.6777 19.0938 21.6185 19.3053 21.5508 19.5254C21.4831 19.7454 21.4069 19.9824 21.3223 20.2363C21.2546 20.4733 21.1953 20.7018 21.1445 20.9219C21.0938 21.1419 21.0853 21.3366 21.1191 21.5059C21.1699 21.6582 21.2461 21.8105 21.3477 21.9629C21.4661 22.0983 21.61 22.1999 21.7793 22.2676C21.9486 22.3353 22.1263 22.3776 22.3125 22.3945C22.668 22.3776 22.9896 22.2676 23.2773 22.0645C23.5651 21.8613 23.8105 21.5736 24.0137 21.2012C24.2337 20.8288 24.3945 20.4141 24.4961 19.957C24.6146 19.4831 24.6738 18.9668 24.6738 18.4082C24.6738 18.0189 24.6061 17.6465 24.4707 17.291C24.3353 16.9355 24.1322 16.6393 23.8613 16.4023C23.6074 16.1484 23.2858 15.9453 22.8965 15.793C22.5241 15.6406 22.084 15.5729 21.5762 15.5898C21.0176 15.5729 20.5098 15.666 20.0527 15.8691C19.6126 16.0723 19.2318 16.3346 18.9102 16.6562C18.5885 16.9779 18.3431 17.3587 18.1738 17.7988C18.0046 18.222 17.9199 18.6621 17.9199 19.1191C17.9199 19.3053 17.9284 19.4661 17.9453 19.6016C17.9792 19.7201 18.013 19.847 18.0469 19.9824C18.0977 20.1009 18.1484 20.2109 18.1992 20.3125C18.2669 20.3971 18.3431 20.4987 18.4277 20.6172C18.4616 20.6341 18.487 20.668 18.5039 20.7188C18.5208 20.7526 18.5293 20.778 18.5293 20.7949C18.5462 20.8118 18.5547 20.8457 18.5547 20.8965C18.5547 20.9303 18.5462 20.9642 18.5293 20.998C18.5124 21.0488 18.4954 21.0996 18.4785 21.1504C18.4785 21.1842 18.4701 21.235 18.4531 21.3027C18.4362 21.3704 18.4193 21.4297 18.4023 21.4805C18.3854 21.5143 18.377 21.5566 18.377 21.6074C18.36 21.6413 18.3346 21.6836 18.3008 21.7344C18.2839 21.7682 18.2585 21.7936 18.2246 21.8105C18.1908 21.8105 18.1569 21.819 18.123 21.8359C18.0892 21.8359 18.0469 21.819 17.9961 21.7852C17.7422 21.6836 17.5137 21.5397 17.3105 21.3535C17.1243 21.1504 16.972 20.9303 16.8535 20.6934C16.735 20.4564 16.6419 20.1855 16.5742 19.8809C16.5065 19.5762 16.4727 19.2715 16.4727 18.9668C16.4727 18.4251 16.5827 17.8835 16.8027 17.3418C17.0397 16.8001 17.3783 16.3008 17.8184 15.8438C18.2585 15.3867 18.8086 15.0228 19.4688 14.752C20.1289 14.4642 20.8991 14.3118 21.7793 14.2949C22.4902 14.3118 23.1335 14.4388 23.709 14.6758C24.3014 14.8958 24.8008 15.209 25.207 15.6152C25.6133 16.0215 25.9264 16.4785 26.1465 16.9863C26.3835 17.4772 26.502 18.002 26.502 18.5605Z" fill="#757575"/>
</svg>
