<svg xmlns="http://www.w3.org/2000/svg" width="286" height="110" viewBox="0 0 286 110" fill="none">
<path d="M279.603 50.6348C265.751 38.1211 245.554 31.4278 219.654 30.7875L209.934 30.5547L205.219 27.0625C191.193 16.6442 173.964 8.14653 155.514 2.55903L149.112 0.580124L122.92 0.463715C101.734 0.347313 96.1468 0.521919 93.7023 1.16216C84.7972 3.60668 61.1668 13.9668 48.4203 21.0676L41.4359 24.9672L29.2132 25.3165C15.5937 25.6657 14.7789 25.8403 11.5777 29.7399C9.19137 32.5918 8.55114 35.6184 8.55114 43.534V50.2274L5.52458 52.7301C1.10114 56.4551 0.169889 59.0161 0.635514 66.1168C1.50856 78.6305 2.84723 81.9481 8.14372 84.4508C10.9957 85.7895 11.7523 85.8477 22.2871 85.8477H33.4621L33.8695 88.0012C35.0336 94.229 40.3882 101.795 46.325 105.579C55.3465 111.341 67.4527 111.108 76.6488 104.997C82.0035 101.388 87.1254 93.8215 88.0566 88.0012L88.464 85.8477H205.103L205.51 88.0594C206.034 91.4934 209.701 98.3032 212.553 101.272C221.691 110.642 236.475 112.505 247.126 105.695C253.179 101.795 258.534 94.2872 259.698 88.0012L260.105 85.8477H268.195C279.196 85.8477 281.524 84.8582 284.201 79.1543C285.482 76.477 285.598 75.4875 285.598 67.5137C285.598 56.9207 285.132 55.5821 279.603 50.6348ZM138.519 7.85551C145.387 7.85551 147.016 8.03012 152.604 9.60161C167.155 13.734 183.393 21.1258 195.383 29.2161L197.42 30.5547H142.127L136.423 19.6125C133.339 13.5594 130.778 8.43755 130.778 8.26293C130.778 8.03012 134.27 7.85551 138.519 7.85551ZM71.4687 18.0993C72.1672 17.4008 86.1941 11.5223 91.4906 9.65981L96.7289 7.85551L109.417 8.03012L122.164 8.14653L127.984 19.3215L133.804 30.5547H86.4269L80.4902 25.8985C71.5269 18.8559 71.1195 18.4485 71.4687 18.0993ZM79.3843 90.6204C77.4054 94.6364 73.9132 98.245 69.9554 100.282C65.7648 102.436 58.4894 102.785 53.8332 100.981C44.2879 97.4301 38.6422 86.3715 41.3777 76.8262C42.6 72.8102 43.473 71.2387 46.616 67.9211C52.4363 61.6934 61.4578 60.0637 69.4898 63.7305C73.7968 65.7094 77.4636 69.318 79.5007 73.625C80.7812 76.3606 81.014 77.6411 81.014 82.0645C81.014 86.6043 80.7812 87.7102 79.3843 90.6204ZM246.194 96.9063C241.771 100.981 237.813 102.319 231.469 102.028C227.628 101.795 225.882 101.446 223.612 100.282C219.654 98.245 216.162 94.6364 214.183 90.6204C212.786 87.7102 212.553 86.6043 212.553 82.0645C212.553 77.5247 212.786 76.4188 214.183 73.5086C216.162 69.5508 219.712 65.884 223.437 63.9633C226.231 62.5664 231.353 61.4024 233.506 61.7516C234.146 61.8098 235.718 62.1008 236.94 62.2754C240.665 62.8575 244.448 65.1856 247.65 68.6778C255.158 76.8844 254.518 89.3399 246.194 96.9063ZM277.275 76.768C276.285 78.2813 276.227 78.2813 268.195 78.2813H260.105L259.698 76.0696C258.883 71.5879 255.565 65.8258 251.607 62.159C245.787 56.6879 240.2 54.4762 232.284 54.418C224.834 54.418 217.908 57.3864 212.553 62.8575C209.701 65.8258 206.034 72.6356 205.51 76.0696L205.103 78.2813H88.464L88.0566 76.0696C87.5328 72.6356 83.866 65.8258 81.014 62.8575C75.6593 57.3864 68.7332 54.418 61.2832 54.418C53.3675 54.4762 47.78 56.6879 41.9597 62.159C38.0019 65.8258 34.6843 71.5879 33.8695 76.0696L33.4621 78.2813H22.6945C16.525 78.2813 11.5195 78.0485 10.8793 77.6993C9.36598 76.8844 8.66755 73.9743 8.20192 66.6407L7.7945 60.5293L10.8793 57.9684C15.3609 54.1852 16.1175 52.1481 16.1175 43.3012C16.1175 36.8407 16.234 35.793 17.2816 34.4543L18.4457 32.9993L30.5519 32.7664L42.6 32.5336L52.7855 27.1789C58.373 24.2688 63.0293 21.8243 63.1457 21.8243C63.2039 21.8243 67.1617 24.909 71.8761 28.634C76.5324 32.359 81.305 36.0258 82.4109 36.7825L84.3898 38.1211H153.71C196.198 38.1211 225.416 38.354 229.257 38.7032C244.448 40.1582 258.592 44.6399 268.137 51.1004C273.026 54.3598 277.042 58.143 277.857 60.1801C279.137 63.1485 278.672 74.6145 277.275 76.768Z" fill="#fbad17"/>
<path d="M57.3255 69.6672C56.1614 69.9582 54.1243 71.1805 52.7856 72.3445C44.2298 79.6199 48.1294 92.7738 59.3626 94.8109C64.4845 95.7422 70.654 92.1336 72.8657 86.8953C75.6012 80.202 71.7016 71.8789 64.7755 69.8418C61.5161 68.8524 60.4102 68.8524 57.3255 69.6672ZM64.368 78.0484C65.8813 79.2707 66.1723 79.9691 66.1723 82.0645C66.1723 84.1598 65.8813 84.8582 64.3098 86.1387C59.0716 90.5621 52.5528 83.0539 57.3837 78.2231C59.5372 76.0695 61.9817 76.0113 64.368 78.0484Z" fill="#fbad17"/>
<path d="M229.025 69.6672C227.861 69.9582 225.824 71.1805 224.485 72.3445C218.258 77.641 218.258 86.4879 224.485 91.8426C232.925 99.0598 245.497 92.832 245.438 81.4824C245.38 76.4188 240.957 70.8895 235.835 69.609C232.867 68.8524 231.993 68.8524 229.025 69.6672ZM236.184 78.2231C239.443 81.4824 237.756 86.6625 233.158 87.361C231.528 87.652 230.771 87.4192 229.258 86.1387C227.686 84.8582 227.395 84.1598 227.395 82.0645C227.395 79.9692 227.686 79.2707 229.2 78.0485C231.586 76.0113 234.031 76.0695 236.184 78.2231Z" fill="#fbad17"/>
</svg>