<svg width="222" height="97" viewBox="0 0 222 97" fill="none" xmlns="http://www.w3.org/2000/svg">
<path d="M221.871 64.7828C221.697 56.8047 221.524 55.2004 220.526 51.3848C219.312 46.6586 217.404 43.4066 214.803 41.4121C211.378 38.8105 209.556 38.3336 190.218 35.3418L171.704 32.4801L153.363 18.6918C133.287 3.55937 132.767 3.21249 128.995 1.69492L126.393 0.654297L82.6002 0.610931C58.5357 0.567574 37.8533 0.697655 36.726 0.871094C30.7424 1.91171 24.4119 4.68671 19.5557 8.41562C17.2576 10.1934 11.0139 16.9141 5.6373 23.418C4.37988 24.9789 2.6455 27.7105 1.77832 29.4883L0.21738 32.7402L0.0873016 53.2492C0.000582799 66.9941 0.130661 73.975 0.390817 74.3219C0.650973 74.6254 2.94902 75.5793 5.55058 76.4898L10.2334 78.0941L10.7103 81.0859C11.6643 87.3297 15.4799 92.4895 21.16 95.2645C24.4119 96.8687 24.542 96.9121 29.485 96.9121C34.4279 96.9121 34.558 96.8687 37.81 95.2645C43.4033 92.5328 47.2189 87.4598 48.2596 81.3461L48.7365 78.4844L105.928 78.5711L163.119 78.7012L163.856 81.5629C166.154 90.6684 175.736 96.9988 184.972 95.4812C192.776 94.1805 199.194 88.1969 200.798 80.6957L201.275 78.4844H217.491L219.789 76.143L222.087 73.8016L221.871 64.7828ZM217.404 54.7234C217.535 55.027 217.708 55.8074 217.838 56.4578L218.098 57.6719H213.329C210.727 57.6719 208.559 57.5418 208.559 57.4117C208.559 56.718 209.6 55.4605 210.64 54.8969C212.115 54.073 217.188 53.9863 217.404 54.7234ZM102.329 3.90625H112.692C118.372 3.90625 124.095 4.12305 125.353 4.33984C126.653 4.6 128.778 5.29375 130.079 5.9875C133.071 7.46172 167.931 33.8676 167.498 34.3012C167.281 34.4312 165.59 35.0816 163.682 35.732L160.213 36.8594H102.329V3.90625ZM63.7389 35.8621C63.7389 35.3418 64.4326 28.1875 65.2564 19.9492C66.0803 11.7109 66.774 4.73007 66.774 4.42656C66.774 4.03632 70.2861 3.90625 82.817 3.90625H98.86V36.8594H63.7389V35.8621ZM56.6279 3.90625H63.4354L63.1752 5.72734C63.0451 6.76797 62.308 14.1824 61.5275 22.2039L60.0967 36.8594H44.6607L43.6201 35.2117C42.1025 32.957 41.1053 28.8812 41.4521 26.4531C41.6256 25.3691 43.4033 20.2961 45.3979 15.1797C47.4357 10.0633 49.2568 5.42383 49.4736 4.86015C49.8205 3.90625 49.9939 3.90625 56.6279 3.90625ZM3.64277 35.2117C4.2498 32.0031 6.15761 29.098 12.2713 22.0738C18.3416 15.093 21.0299 12.5348 24.4986 10.2801C27.1869 8.5457 27.4471 8.67578 27.1002 11.5809C26.6232 15.5266 25.626 17.998 21.4635 25.3691C15.5666 35.8187 14.2658 36.8594 6.98144 36.8594H3.38261L3.64277 35.2117ZM3.46933 50.7344H6.93808V54.2031H3.46933V50.7344ZM43.6635 83.0805C42.1025 86.4191 39.1541 89.3676 35.7721 90.9285C33.5607 91.9691 32.6068 92.1426 29.485 92.1426C26.3631 92.1426 25.4092 91.9691 23.1978 90.9285C15.9568 87.5465 12.358 79.8285 14.5693 72.4141C17.2576 63.3086 27.2736 58.7125 35.8154 62.6148C39.1541 64.1324 42.1025 67.0809 43.6635 70.4195C44.7041 72.6742 44.8775 73.6281 44.8775 76.75C44.8775 79.8719 44.7041 80.8258 43.6635 83.0805ZM196.288 83.0805C194.728 86.4191 191.779 89.3676 188.397 90.9285C186.186 91.9691 185.232 92.1426 182.11 92.1426C178.988 92.1426 178.034 91.9691 175.823 90.9285C172.441 89.3676 169.492 86.4191 167.931 83.0805C166.891 80.8258 166.717 79.8719 166.717 76.75C166.717 73.6281 166.891 72.6742 167.931 70.4629C171.66 62.5281 180.636 59.0594 188.44 62.6148C191.779 64.1324 194.728 67.0809 196.288 70.4195C197.329 72.6742 197.503 73.6281 197.503 76.75C197.503 79.8719 197.329 80.8258 196.288 83.0805ZM218.532 66.8641C218.532 72.5008 218.532 72.5875 217.361 73.8016L216.19 75.0156H201.275L200.798 72.8043C199.15 65.0863 192.646 59.1461 184.625 57.9754C175.303 56.6312 165.85 63.0918 163.769 72.1973L163.162 74.7988L105.928 74.9289L48.6932 75.0156L48.1295 72.5441C47.349 68.9453 45.7881 66.127 43.0131 63.2219C35.9021 55.7641 24.1951 55.5039 16.5205 62.6148C14.2225 64.7395 11.7943 68.7719 11.2307 71.4602C10.9271 72.8043 10.6236 74.0184 10.5803 74.1051C10.4936 74.1484 8.88926 73.7148 6.98144 73.0645L3.46933 71.8937V57.6719H6.41777C8.15215 57.6719 9.583 57.4551 9.88652 57.1516C10.5803 56.4578 10.5803 48.4797 9.88652 47.7859C9.583 47.4824 8.15215 47.2656 6.41777 47.2656H3.46933V40.3281H7.50176C13.5721 40.2848 16.9107 38.8539 19.599 35.125C22.1572 31.6129 28.5311 19.8191 29.5283 16.8707C30.2654 14.4859 30.5689 12.6648 30.5689 9.88984V6.11758L32.7369 5.42383C33.951 5.07695 35.7721 4.6 36.8561 4.3832C38.8939 3.99297 45.9615 3.77617 45.9615 4.07968C45.9615 4.20976 44.3139 8.45898 42.276 13.5754C40.2381 18.6918 38.3736 24.025 38.1135 25.3691C37.2896 29.8352 38.9373 35.5586 42.0158 38.8973L43.3166 40.3281H160.69L166.501 38.3769C169.709 37.293 172.831 36.4258 173.481 36.4258C174.132 36.4258 182.197 37.5965 191.432 39.0273C209.773 41.8891 210.857 42.1926 213.719 45.3145C215.106 46.832 216.797 49.6937 216.797 50.5609C216.797 50.6477 215.627 50.7344 214.196 50.7344C209.99 50.7344 207.172 52.2953 205.481 55.5906C204.527 57.4117 204.397 59.8398 205.177 60.6203C205.524 60.9672 207.692 61.1406 212.115 61.1406H218.532V66.8641Z" fill="#00ADEE"/>
<path d="M106.317 51.2548C106.057 51.515 105.797 52.122 105.797 52.5122C105.797 53.8997 106.881 54.2466 111.217 54.1165C114.686 54.0298 115.553 53.8564 115.943 53.206C116.29 52.6857 116.29 52.2521 115.943 51.6884C115.553 51.0814 114.686 50.9079 111.173 50.8212C108.182 50.7345 106.707 50.8646 106.317 51.2548Z" fill="#00ADEE"/>
<path d="M26.6662 68.5984C22.1568 70.246 19.9889 74.582 21.2897 79.2214C22.8072 84.7714 29.8315 87.1562 34.5576 83.7308C36.899 82.0398 37.9397 79.7851 37.9397 76.5331C37.9397 73.4113 36.769 71.1999 34.2541 69.5523C32.3463 68.2949 28.7041 67.8179 26.6662 68.5984ZM33.1268 73.2378C34.2541 74.4085 34.4709 74.9289 34.4709 76.7499C34.4709 78.6144 34.2541 79.0914 33.04 80.3054C31.826 81.5195 31.349 81.7363 29.4846 81.7363C27.6201 81.7363 27.1432 81.5195 25.9291 80.3054C24.715 79.0914 24.4982 78.6144 24.4982 76.7933C24.4982 74.5386 25.5822 72.8042 27.5334 71.9371C29.1377 71.2433 31.6959 71.807 33.1268 73.2378Z" fill="#00ADEE"/>
<path d="M179.291 68.5984C174.782 70.246 172.614 74.582 173.915 79.2214C175.432 84.7714 182.456 87.1562 187.183 83.7308C189.524 82.0398 190.565 79.7851 190.565 76.5331C190.565 73.4113 189.394 71.1999 186.879 69.5523C184.971 68.2949 181.329 67.8179 179.291 68.5984ZM185.752 73.2378C186.879 74.4085 187.096 74.9289 187.096 76.7499C187.096 78.6144 186.879 79.0914 185.665 80.3054C184.451 81.5195 183.974 81.7363 182.11 81.7363C180.245 81.7363 179.768 81.5195 178.554 80.3054C177.34 79.0914 177.123 78.6144 177.123 76.7933C177.123 74.5386 178.207 72.8042 180.158 71.9371C181.763 71.2433 184.321 71.807 185.752 73.2378Z" fill="#00ADEE"/>
</svg>
