<svg width="342" height="342" viewBox="0 0 342 342" fill="none" xmlns="http://www.w3.org/2000/svg">
<path d="M301.995 192.096C301.88 179.767 298.653 168.359 294.16 164.441C290.703 161.445 280.563 159.199 248.991 154.589C239.081 153.092 230.439 151.709 229.344 151.421C228.365 151.133 224.447 149.231 220.414 146.927C212.464 142.318 196.217 134.252 188.784 131.198C182.735 128.721 179.105 128.03 168.562 127.281C161.245 126.762 129.673 126.647 122.298 127.108C108.99 127.914 91.1295 133.906 72.0595 143.931L65.0882 147.561L56.331 148.54C53.1622 148.886 46.8824 149.808 45.6725 150.499C42.619 152.4 42.4461 154.186 41.87 167.264C41.6395 171.47 41.3515 178.384 40.8906 179.594C39.9687 180.285 39.7383 181.956 39.7383 187.775C39.7383 193.94 39.7959 195.437 41.3515 196.244C43.7136 197.512 53.047 198.261 54.8906 198.376C66.4133 199.24 67.1047 198.145 67.4504 197.627C67.9113 196.935 68.3722 193.824 68.545 192.038C69.4092 184.088 74.3064 177.232 81.6233 173.66C82.1418 173.429 82.5451 173.199 82.9484 173.026C85.4258 171.758 86.3476 171.297 91.5328 171.297C96.7757 171.297 97.8127 171.816 100.117 173.026C100.405 173.141 100.636 173.314 100.981 173.429C105.879 175.791 109.854 179.767 112.274 184.664C114.002 188.121 114.29 189.33 114.521 193.306C114.636 195.265 114.866 198.664 115.846 199.528C116.249 199.874 116.422 199.989 131.401 200.45C140.965 200.738 153.352 201.026 166.2 201.314C193.221 201.833 217.13 202.351 219.55 202.466C224.332 202.754 225.254 202.063 225.599 201.775C226.579 200.968 226.925 199.298 227.097 194.4C227.328 189.561 227.558 188.293 228.999 185.297C231.879 179.133 236.604 174.812 242.711 172.68C246.456 171.413 253.139 171.355 256.999 172.45C261.032 173.602 266.159 177.289 268.637 180.746C272.151 185.701 273.188 189.1 273.131 195.322C273.131 201.084 273.649 201.948 274.283 202.409C274.917 202.87 277.106 203.158 279.929 203.388C282.752 203.619 286.151 203.676 289.147 203.676C292.719 203.676 295.715 203.561 296.695 203.273C301.649 202.005 302.053 200.277 301.995 192.096ZM297.213 198.145C296.406 199.009 293.526 199.067 288.686 199.125L277.567 199.298V195.322C277.567 186.277 274.686 179.479 268.406 173.89C263.221 169.223 256.711 166.861 250.2 166.861C242.826 166.861 235.451 169.799 229.863 175.676C224.966 180.746 221.97 188.466 222.258 195.265C222.316 196.532 222.316 197.281 222.316 197.742C215.863 197.8 175.533 196.993 134.628 195.956L119.187 195.553L118.899 192.499C117.977 180.976 110.257 171.355 99.1378 168.013C89.6892 165.133 78.9731 167.841 71.829 174.927C67.508 179.248 64.5121 185.47 63.936 191.232L63.7055 194.055L56.9071 193.767C51.8947 193.479 47.6313 193.075 46.2486 192.73L44.1745 192.269V187.717C44.1745 183.684 44.4626 182.59 44.5778 182.302C45.442 181.61 45.7301 180.112 46.1334 168.359C46.3638 161.388 46.8247 156.145 46.9976 155.223C47.1704 154.935 47.4009 154.647 47.7466 154.474C47.4009 154.762 46.9976 155.627 46.9976 159.602C46.9976 163.174 46.9976 164.672 49.5326 164.672C54.2569 164.672 60.8248 159.314 60.8248 155.454C60.8248 155.281 60.7672 154.589 59.903 154.244C58.6931 153.783 54.545 153.725 53.7384 153.725C52.01 153.725 50.7425 153.783 49.8783 153.84C51.3762 153.552 53.6231 153.264 57.1952 152.861L66.01 151.997L74.5368 147.618C89.2859 140.128 105.591 133.849 114.29 132.351C122.471 130.968 153.122 130.68 168.965 131.832C179.278 132.639 182.447 133.33 189.879 136.614C198.521 140.474 214.019 148.367 220.011 151.997C222.719 153.552 226.464 155.454 228.192 155.857C229.863 156.318 239.945 157.873 248.818 159.199C279.756 163.692 288.917 165.651 291.509 168.417C294.505 171.643 296.867 180.804 297.328 191.232C297.328 191.693 297.386 192.211 297.386 192.614C297.732 195.553 297.847 197.454 297.213 198.145ZM51.7219 159.199V158.334H53.4503C53.6231 158.334 53.7384 158.334 53.9112 158.334C53.2198 158.795 52.3556 159.314 51.7219 159.659C51.7219 159.544 51.7219 159.371 51.7219 159.199Z" fill="#FBAD17"/>
<path d="M147.015 134.943L146.496 131.832L137.681 131.89C133.072 131.947 127.426 132.293 124.718 132.696C112.216 134.77 111.928 136.844 111.871 137.651C111.64 138.918 113.369 144.795 113.945 146.523L116.364 154.474L123.797 154.877C128.867 155.166 134.398 155.338 139.179 155.338C139.41 155.338 139.64 155.338 139.813 155.338C148.052 155.338 148.34 154.877 148.686 154.301C148.974 153.898 149.147 153.61 148.455 146.581C147.994 142.721 147.476 138.227 147.015 134.943ZM140.735 136.095L142.636 136.153L143.155 140.359C143.385 142.087 143.616 144.219 143.846 146.005C143.961 147.157 144.134 148.252 144.192 148.943L144.422 151.075L132.496 150.787C126.677 150.614 121.607 150.384 119.821 150.268C119.13 148.137 117.229 141.626 116.537 139.264C117.344 139.034 118.727 138.63 120.628 138.17C125.813 136.902 135.607 135.923 140.735 136.095Z" fill="#FBAD17"/>
<path d="M198.983 144.45C187.978 137.075 180.949 133.733 174.727 132.984C170.925 132.524 165.279 132.178 160.036 132.005C150.875 131.717 150.587 132.178 150.184 132.754L150.126 132.812C149.896 133.157 149.55 133.791 150.818 144.161C152.143 154.647 152.604 154.993 153.122 155.338C153.871 155.799 156.06 155.972 194.719 156.952C200.308 157.125 203.88 157.182 206.184 157.182C209.583 157.182 210.217 156.952 210.793 156.433C211.312 155.915 211.312 155.338 211.312 154.993C211.312 152.976 209.583 151.536 198.983 144.45ZM156.06 151.306L155.484 145.026C155.139 141.569 154.678 137.478 154.447 136.326L162.052 136.672C166.892 136.845 172.826 137.305 175.073 137.594C181.007 138.515 191.032 143.873 201.978 151.997L202.785 152.631L190.283 152.343C181.122 152.17 169.484 151.824 164.587 151.651L156.06 151.306Z" fill="#FBAD17"/>
<path d="M108.241 139.264C106.974 138.112 105.418 138.688 102.25 140.013C100.636 140.762 97.7557 142.087 97.0644 142.779C95.1631 144.68 96.9491 146.581 100.809 150.787C103.344 153.552 104.266 154.129 107.089 154.417C107.723 154.474 108.357 154.532 108.933 154.532C110.085 154.532 111.007 154.301 111.641 153.61C112.678 152.343 112.274 150.326 111.064 146.12C110.834 145.544 109.221 140.244 108.241 139.264ZM105.418 143.585C105.649 144.219 106.052 145.199 106.455 146.524C106.859 147.964 107.32 149.52 107.492 150.268C107.492 150.268 107.435 150.268 107.377 150.268C107.262 150.268 106.398 150.153 103.863 147.388L101.904 145.199L103.287 144.565C104.151 144.161 104.9 143.816 105.418 143.585Z" fill="#FBAD17"/>
<path d="M163.031 164.672C158.019 164.672 157.558 165.133 157.327 165.363C156.578 166.17 156.694 166.861 156.866 167.264C157.327 168.359 158.768 168.705 162.973 168.705C166.43 168.705 168.677 168.705 168.677 166.688C168.677 164.672 166.43 164.672 163.031 164.672Z" fill="#FBAD17"/>
<path d="M290.011 177.692C290.242 177.692 290.357 177.635 290.472 177.635C290.818 177.52 291.97 177.059 291.97 173.602C291.97 170.03 290.415 168.071 286.67 167.092C283.789 166.285 276.933 166.285 273.361 167.149C271.748 167.495 270.711 168.013 270.365 168.705C270.192 169.05 270.135 169.511 270.307 169.857C270.48 170.318 270.884 170.664 272.094 171.24C274.283 172.334 278.719 174.063 282.118 175.273C287.649 177.289 289.32 177.692 290.011 177.692ZM286.612 171.989C286.036 171.816 285.345 171.643 284.423 171.297C285.114 171.413 285.633 171.528 285.978 171.701C286.209 171.816 286.439 171.931 286.612 171.989Z" fill="#FBAD17"/>
<path d="M105.821 179.652C100.232 174.005 91.3021 172.277 83.5819 175.215C78.8576 177.001 73.7876 182.129 72.0592 186.911C68.2567 197.108 72.693 208.689 82.1992 213.355C85.1951 214.853 86.405 215.084 91.475 215.084C98.2734 215.084 101.673 213.701 106.109 209.265C110.545 204.829 111.928 201.372 111.928 194.631C111.928 187.66 110.603 184.433 105.821 179.652ZM98.1581 209.495C94.0676 211.454 88.3638 211.281 84.0428 209.092C80.1827 207.133 78.3967 205.29 76.4378 201.084C73.0386 193.594 76.0922 184.376 83.2938 180.516C86.0593 179.018 88.7095 178.269 91.3597 178.269C93.6067 178.269 95.8536 178.787 98.2157 179.882C101.442 181.322 104.438 184.145 106.109 187.314C107.78 190.368 107.837 198.837 106.166 201.89C104.611 204.886 101.269 208.055 98.1581 209.495Z" fill="#FBAD17"/>
<path d="M95.507 187.66C92.8568 186.162 89.6881 186.277 87.0379 187.89C84.3876 189.503 83.4082 191.232 83.4082 194.343C83.4082 199.125 86.865 202.697 91.4741 202.697C96.0256 202.697 99.54 199.182 99.54 194.631C99.54 191.693 98.042 189.043 95.507 187.66ZM89.1119 191.635C89.5729 191.289 90.2642 191.174 91.0132 191.174C92.1078 191.174 93.3177 191.52 94.0091 192.154L94.0667 192.211C94.7005 192.787 94.9885 193.536 94.9885 194.631C94.9885 196.82 93.5482 197.857 92.2231 198.088C90.6099 198.376 88.651 197.569 87.8444 195.265C87.4988 194.516 88.2477 192.326 89.1119 191.635Z" fill="#FBAD17"/>
<path d="M264.143 179.363C259.994 175.561 255.558 173.89 249.739 173.947C247.204 173.947 244.381 174.351 242.883 174.927C234.932 178.153 229.747 185.355 229.286 193.651C228.883 201.66 233.089 209.092 240.291 212.952C243.459 214.623 244.957 215.026 248.99 215.256C249.451 215.256 249.97 215.314 250.431 215.314C255.789 215.314 259.822 213.701 263.854 210.129C268.406 206.038 270.883 200.565 270.941 194.631C270.941 188.869 268.521 183.396 264.143 179.363ZM264.661 202.005C263.048 205.347 260.455 207.709 256.48 209.553C254.06 210.647 253.196 210.82 249.163 210.59C243.805 210.302 241.097 209.034 237.64 205.059C235.048 202.12 233.78 198.721 233.78 194.573C233.78 190.31 235.048 187.026 237.928 183.799C241.328 179.997 245.13 178.153 249.566 178.153C251.352 178.153 253.311 178.441 255.328 179.017C258.093 179.824 262.126 182.935 263.912 185.758C266.966 190.598 267.254 196.647 264.661 202.005Z" fill="#FBAD17"/>
<path d="M250.43 186.565C248.817 186.565 246.8 187.083 245.706 187.775C243.632 189.042 241.846 192.211 241.846 194.631C241.846 197.396 243.286 199.931 245.706 201.429C247.031 202.236 248.586 202.639 250.084 202.639C251.41 202.639 252.677 202.351 253.887 201.717C256.768 200.277 257.977 198.088 257.977 194.458C257.977 191.75 257.574 190.771 255.673 188.869C253.829 187.026 252.792 186.565 250.43 186.565ZM247.434 197.051C246.282 195.61 246.397 193.939 246.916 192.96C247.434 191.865 248.471 191.232 249.681 191.232C250.833 191.232 251.87 191.462 252.159 191.635L252.216 191.693C253.484 192.326 254.117 194.516 253.484 196.014C252.85 197.512 252.216 198.203 249.739 198.203C248.586 198.088 248.068 197.857 247.434 197.051Z" fill="#FBAD17"/>
<path d="M113.727 259.27C112.027 259.27 110.487 259.06 109.107 258.64C107.727 258.2 106.527 257.58 105.507 256.78L106.557 254.32C107.237 254.84 107.937 255.27 108.657 255.61C109.397 255.95 110.177 256.21 110.997 256.39C111.837 256.55 112.747 256.63 113.727 256.63C115.407 256.63 116.637 256.33 117.417 255.73C118.217 255.13 118.617 254.34 118.617 253.36C118.617 252.52 118.337 251.87 117.777 251.41C117.237 250.95 116.277 250.58 114.897 250.3L111.627 249.64C109.687 249.24 108.237 248.59 107.277 247.69C106.337 246.77 105.867 245.52 105.867 243.94C105.867 242.66 106.207 241.54 106.887 240.58C107.567 239.62 108.507 238.88 109.707 238.36C110.927 237.84 112.347 237.58 113.967 237.58C115.467 237.58 116.847 237.8 118.107 238.24C119.367 238.66 120.427 239.29 121.287 240.13L120.267 242.5C119.367 241.72 118.407 241.15 117.387 240.79C116.367 240.41 115.207 240.22 113.907 240.22C112.367 240.22 111.157 240.54 110.277 241.18C109.417 241.82 108.987 242.69 108.987 243.79C108.987 244.67 109.257 245.36 109.797 245.86C110.357 246.36 111.277 246.74 112.557 247L115.827 247.63C117.847 248.05 119.337 248.7 120.297 249.58C121.257 250.44 121.737 251.63 121.737 253.15C121.737 254.37 121.407 255.44 120.747 256.36C120.107 257.28 119.187 258 117.987 258.52C116.787 259.02 115.367 259.27 113.727 259.27ZM132.093 259.27C130.453 259.27 129.213 258.83 128.373 257.95C127.533 257.05 127.113 255.71 127.113 253.93V246.22H124.173V243.88H127.113V239.89L130.143 239.08V243.88H134.343V246.22H130.143V253.66C130.143 254.78 130.343 255.58 130.743 256.06C131.143 256.54 131.723 256.78 132.483 256.78C132.863 256.78 133.193 256.75 133.473 256.69C133.773 256.61 134.043 256.52 134.283 256.42V258.88C133.983 259 133.633 259.09 133.233 259.15C132.833 259.23 132.453 259.27 132.093 259.27ZM143.902 259.27C142.562 259.27 141.392 258.96 140.392 258.34C139.392 257.72 138.612 256.82 138.052 255.64C137.512 254.46 137.242 253.06 137.242 251.44C137.242 249.8 137.512 248.4 138.052 247.24C138.612 246.08 139.392 245.19 140.392 244.57C141.392 243.93 142.562 243.61 143.902 243.61C145.222 243.61 146.372 243.94 147.352 244.6C148.332 245.26 148.982 246.16 149.302 247.3H148.972L149.272 243.88H152.212C152.152 244.5 152.092 245.12 152.032 245.74C151.992 246.34 151.972 246.93 151.972 247.51V259H148.942V255.64H149.272C148.952 256.76 148.292 257.65 147.292 258.31C146.312 258.95 145.182 259.27 143.902 259.27ZM144.652 256.9C145.952 256.9 146.992 256.44 147.772 255.52C148.572 254.6 148.972 253.24 148.972 251.44C148.972 249.64 148.572 248.29 147.772 247.39C146.992 246.47 145.952 246.01 144.652 246.01C143.332 246.01 142.272 246.47 141.472 247.39C140.692 248.29 140.302 249.64 140.302 251.44C140.302 253.24 140.692 254.6 141.472 255.52C142.252 256.44 143.312 256.9 144.652 256.9ZM157.393 259V247.51C157.393 246.93 157.363 246.34 157.303 245.74C157.263 245.12 157.213 244.5 157.153 243.88H160.093L160.363 247.06H160.003C160.463 245.94 161.173 245.09 162.133 244.51C163.093 243.91 164.203 243.61 165.463 243.61C167.243 243.61 168.583 244.1 169.483 245.08C170.403 246.06 170.863 247.58 170.863 249.64V259H167.833V249.82C167.833 248.48 167.563 247.52 167.023 246.94C166.503 246.34 165.703 246.04 164.623 246.04C163.343 246.04 162.323 246.44 161.563 247.24C160.803 248.02 160.423 249.08 160.423 250.42V259H157.393ZM181.966 259.27C180.646 259.27 179.476 258.96 178.456 258.34C177.456 257.72 176.676 256.82 176.116 255.64C175.576 254.46 175.306 253.06 175.306 251.44C175.306 249.8 175.576 248.4 176.116 247.24C176.676 246.08 177.456 245.19 178.456 244.57C179.476 243.93 180.646 243.61 181.966 243.61C183.266 243.61 184.406 243.94 185.386 244.6C186.386 245.24 187.046 246.12 187.366 247.24H187.006V236.92H190.036V259H187.036V255.58H187.396C187.056 256.72 186.396 257.62 185.416 258.28C184.436 258.94 183.286 259.27 181.966 259.27ZM182.716 256.9C184.016 256.9 185.066 256.44 185.866 255.52C186.666 254.6 187.066 253.24 187.066 251.44C187.066 249.64 186.666 248.29 185.866 247.39C185.066 246.47 184.016 246.01 182.716 246.01C181.396 246.01 180.336 246.47 179.536 247.39C178.756 248.29 178.366 249.64 178.366 251.44C178.366 253.24 178.756 254.6 179.536 255.52C180.336 256.44 181.396 256.9 182.716 256.9ZM201.247 259.27C199.907 259.27 198.737 258.96 197.737 258.34C196.737 257.72 195.957 256.82 195.397 255.64C194.857 254.46 194.587 253.06 194.587 251.44C194.587 249.8 194.857 248.4 195.397 247.24C195.957 246.08 196.737 245.19 197.737 244.57C198.737 243.93 199.907 243.61 201.247 243.61C202.567 243.61 203.717 243.94 204.697 244.6C205.677 245.26 206.327 246.16 206.647 247.3H206.317L206.617 243.88H209.557C209.497 244.5 209.437 245.12 209.377 245.74C209.337 246.34 209.317 246.93 209.317 247.51V259H206.287V255.64H206.617C206.297 256.76 205.637 257.65 204.637 258.31C203.657 258.95 202.527 259.27 201.247 259.27ZM201.997 256.9C203.297 256.9 204.337 256.44 205.117 255.52C205.917 254.6 206.317 253.24 206.317 251.44C206.317 249.64 205.917 248.29 205.117 247.39C204.337 246.47 203.297 246.01 201.997 246.01C200.677 246.01 199.617 246.47 198.817 247.39C198.037 248.29 197.647 249.64 197.647 251.44C197.647 253.24 198.037 254.6 198.817 255.52C199.597 256.44 200.657 256.9 201.997 256.9ZM214.679 259V247.63C214.679 247.01 214.659 246.39 214.619 245.77C214.599 245.13 214.559 244.5 214.499 243.88H217.439L217.769 247.78H217.289C217.489 246.84 217.829 246.06 218.309 245.44C218.789 244.82 219.369 244.36 220.049 244.06C220.749 243.76 221.479 243.61 222.239 243.61C222.559 243.61 222.829 243.63 223.049 243.67C223.269 243.69 223.489 243.73 223.709 243.79L223.679 246.49C223.339 246.35 223.039 246.27 222.779 246.25C222.539 246.21 222.239 246.19 221.879 246.19C220.999 246.19 220.249 246.39 219.629 246.79C219.009 247.17 218.539 247.69 218.219 248.35C217.899 249.01 217.739 249.72 217.739 250.48V259H214.679ZM232.632 259.27C231.312 259.27 230.142 258.96 229.122 258.34C228.122 257.72 227.342 256.82 226.782 255.64C226.242 254.46 225.972 253.06 225.972 251.44C225.972 249.8 226.242 248.4 226.782 247.24C227.342 246.08 228.122 245.19 229.122 244.57C230.142 243.93 231.312 243.61 232.632 243.61C233.932 243.61 235.072 243.94 236.052 244.6C237.052 245.24 237.712 246.12 238.032 247.24H237.672V236.92H240.702V259H237.702V255.58H238.062C237.722 256.72 237.062 257.62 236.082 258.28C235.102 258.94 233.952 259.27 232.632 259.27ZM233.382 256.9C234.682 256.9 235.732 256.44 236.532 255.52C237.332 254.6 237.732 253.24 237.732 251.44C237.732 249.64 237.332 248.29 236.532 247.39C235.732 246.47 234.682 246.01 233.382 246.01C232.062 246.01 231.002 246.47 230.202 247.39C229.422 248.29 229.032 249.64 229.032 251.44C229.032 253.24 229.422 254.6 230.202 255.52C231.002 256.44 232.062 256.9 233.382 256.9Z" fill="#FBAD17"/>
</svg>
