<svg width="222" height="222" viewBox="0 0 222 222" fill="none" xmlns="http://www.w3.org/2000/svg">
<g clip-path="url(#clip0_995_896)">
<path d="M205.966 124.483C205.817 117.65 205.669 116.276 204.814 113.008C203.775 108.96 202.141 106.175 199.913 104.466C196.979 102.238 195.419 101.83 178.857 99.2675L163 96.8165L147.291 85.0074C130.098 72.0471 129.652 71.75 126.421 70.4502L124.193 69.559L86.6861 69.5218C66.0758 69.4847 48.3622 69.5961 47.3966 69.7447C42.2719 70.6359 36.8501 73.0126 32.6909 76.2062C30.7227 77.7288 25.3752 83.4848 20.7704 89.0552C19.6935 90.392 18.2081 92.7316 17.4653 94.2541L16.1285 97.0393L16.0171 114.604C15.9428 126.376 16.0542 132.355 16.277 132.652C16.4998 132.912 18.468 133.729 20.6961 134.509L24.7068 135.883L25.1153 138.446C25.9323 143.793 29.2002 148.212 34.065 150.589C36.8501 151.963 36.9615 152 41.195 152C45.4284 152 45.5399 151.963 48.325 150.589C53.1155 148.249 56.3834 143.904 57.2747 138.668L57.6832 136.217L106.665 136.292L155.647 136.403L156.278 138.854C158.246 146.652 166.453 152.074 174.363 150.775C181.048 149.66 186.544 144.536 187.918 138.111L188.326 136.217H202.215L204.183 134.212L206.151 132.207L205.966 124.483ZM202.141 115.867C202.252 116.127 202.401 116.795 202.512 117.352L202.735 118.392H198.65C196.422 118.392 194.565 118.281 194.565 118.169C194.565 117.575 195.456 116.498 196.348 116.016C197.61 115.31 201.955 115.236 202.141 115.867ZM103.583 72.3441H112.458C117.323 72.3441 122.225 72.5298 123.302 72.7155C124.416 72.9383 126.235 73.5325 127.35 74.1267C129.912 75.3893 159.769 98.0048 159.398 98.3762C159.212 98.4876 157.764 99.0446 156.13 99.6017L153.159 100.567H103.583V72.3441ZM70.5321 99.7131C70.5321 99.2675 71.1263 93.1401 71.8319 86.0843C72.5374 79.0285 73.1316 73.0497 73.1316 72.7898C73.1316 72.4556 76.1396 72.3441 86.8718 72.3441H100.612V100.567H70.5321V99.7131ZM64.4419 72.3441H70.2722L70.0493 73.9038C69.9379 74.7951 69.3066 81.1453 68.6382 88.0154L67.4127 100.567H54.1924L53.3012 99.156C52.0014 97.225 51.1473 93.7342 51.4444 91.6547C51.593 90.7263 53.1155 86.3814 54.8237 81.9994C56.5691 77.6174 58.1288 73.6439 58.3145 73.1611C58.6116 72.3441 58.7601 72.3441 64.4419 72.3441ZM19.0622 99.156C19.5821 96.408 21.216 93.9199 26.4522 87.904C31.6511 81.9251 33.9535 79.7341 36.9244 77.8031C39.2268 76.3176 39.4496 76.4291 39.1525 78.9171C38.744 82.2965 37.8899 84.4132 34.3249 90.7263C29.2745 99.6759 28.1604 100.567 21.9216 100.567H18.8394L19.0622 99.156ZM18.9136 112.451H21.8845V115.421H18.9136V112.451ZM53.3383 140.154C52.0014 143.013 49.4762 145.538 46.5796 146.875C44.6857 147.767 43.8688 147.915 41.195 147.915C38.5212 147.915 37.7042 147.767 35.8103 146.875C29.6087 143.979 26.5264 137.369 28.4203 131.018C30.7227 123.22 39.3011 119.284 46.6168 122.626C49.4762 123.925 52.0014 126.451 53.3383 129.31C54.2296 131.241 54.3781 132.058 54.3781 134.732C54.3781 137.406 54.2296 138.223 53.3383 140.154ZM184.056 140.154C182.719 143.013 180.194 145.538 177.297 146.875C175.403 147.767 174.586 147.915 171.912 147.915C169.239 147.915 168.422 147.767 166.528 146.875C163.631 145.538 161.106 143.013 159.769 140.154C158.878 138.223 158.729 137.406 158.729 134.732C158.729 132.058 158.878 131.241 159.769 129.347C162.963 122.551 170.65 119.581 177.334 122.626C180.194 123.925 182.719 126.451 184.056 129.31C184.947 131.241 185.095 132.058 185.095 134.732C185.095 137.406 184.947 138.223 184.056 140.154ZM203.106 126.265C203.106 131.093 203.106 131.167 202.104 132.207L201.101 133.247H188.326L187.918 131.353C186.507 124.742 180.936 119.655 174.066 118.652C166.082 117.501 157.986 123.034 156.204 130.833L155.684 133.061L106.665 133.172L57.6461 133.247L57.1633 131.13C56.4949 128.048 55.158 125.634 52.7813 123.146C46.6911 116.758 36.6644 116.536 30.0914 122.626C28.1233 124.445 26.0437 127.899 25.5609 130.201C25.301 131.353 25.041 132.392 25.0039 132.467C24.9296 132.504 23.5556 132.132 21.9216 131.575L18.9136 130.573V118.392H21.4389C22.9243 118.392 24.1497 118.207 24.4097 117.947C25.0039 117.352 25.0039 110.52 24.4097 109.925C24.1497 109.665 22.9243 109.48 21.4389 109.48H18.9136V103.538H22.3672C27.5662 103.501 30.4257 102.275 32.7281 99.0818C34.9191 96.0738 40.378 85.9729 41.2321 83.4477C41.8634 81.4052 42.1234 79.8455 42.1234 77.4689V74.2381L43.9802 73.6439C45.02 73.3468 46.5796 72.9383 47.508 72.7526C49.2534 72.4184 55.3065 72.2327 55.3065 72.4927C55.3065 72.6041 53.8954 76.2434 52.15 80.6254C50.4046 85.0074 48.8078 89.5751 48.585 90.7263C47.8794 94.5512 49.2905 99.4531 51.9272 102.313L53.0412 103.538H153.567L158.543 101.867C161.291 100.939 163.965 100.196 164.522 100.196C165.079 100.196 171.987 101.199 179.896 102.424C195.605 104.875 196.533 105.135 198.984 107.809C200.172 109.108 201.621 111.559 201.621 112.302C201.621 112.376 200.618 112.451 199.393 112.451C195.79 112.451 193.377 113.787 191.928 116.61C191.111 118.169 191 120.249 191.668 120.918C191.965 121.215 193.822 121.363 197.61 121.363H203.106V126.265Z" fill="#00ADEE"/>
<path d="M106.999 112.896C106.777 113.119 106.554 113.639 106.554 113.973C106.554 115.162 107.482 115.459 111.196 115.347C114.167 115.273 114.909 115.124 115.243 114.567C115.541 114.122 115.541 113.75 115.243 113.268C114.909 112.748 114.167 112.599 111.159 112.525C108.596 112.451 107.334 112.562 106.999 112.896Z" fill="#00ADEE"/>
<path d="M38.7813 127.75C34.9192 129.162 33.0624 132.875 34.1765 136.849C35.4762 141.602 41.4922 143.644 45.5399 140.711C47.5453 139.262 48.4365 137.331 48.4365 134.546C48.4365 131.873 47.4339 129.979 45.28 128.567C43.646 127.491 40.5266 127.082 38.7813 127.75ZM44.3145 131.724C45.28 132.727 45.4657 133.172 45.4657 134.732C45.4657 136.329 45.28 136.737 44.2402 137.777C43.2004 138.817 42.7919 139.003 41.1951 139.003C39.5982 139.003 39.1898 138.817 38.15 137.777C37.1102 136.737 36.9245 136.329 36.9245 134.769C36.9245 132.838 37.8529 131.353 39.524 130.61C40.898 130.016 43.089 130.498 44.3145 131.724Z" fill="#00ADEE"/>
<path d="M169.498 127.75C165.636 129.162 163.779 132.875 164.893 136.849C166.193 141.602 172.209 143.644 176.257 140.711C178.262 139.262 179.153 137.331 179.153 134.546C179.153 131.873 178.151 129.979 175.997 128.567C174.363 127.491 171.243 127.082 169.498 127.75ZM175.031 131.724C175.997 132.727 176.182 133.172 176.182 134.732C176.182 136.329 175.997 136.737 174.957 137.777C173.917 138.817 173.509 139.003 171.912 139.003C170.315 139.003 169.907 138.817 168.867 137.777C167.827 136.737 167.641 136.329 167.641 134.769C167.641 132.838 168.57 131.353 170.241 130.61C171.615 130.016 173.806 130.498 175.031 131.724Z" fill="#00ADEE"/>
<path d="M59.9841 202V180.85H68.8041C71.0841 180.85 72.8341 181.33 74.0541 182.29C75.2941 183.25 75.9141 184.6 75.9141 186.34C75.9141 187.64 75.5241 188.73 74.7441 189.61C73.9641 190.49 72.8941 191.08 71.5341 191.38V190.93C73.0941 191.13 74.3041 191.68 75.1641 192.58C76.0241 193.48 76.4541 194.67 76.4541 196.15C76.4541 198.03 75.8141 199.48 74.5341 200.5C73.2741 201.5 71.4941 202 69.1941 202H59.9841ZM63.0141 199.57H68.8641C70.2841 199.57 71.3941 199.3 72.1941 198.76C73.0141 198.22 73.4241 197.31 73.4241 196.03C73.4241 194.75 73.0141 193.84 72.1941 193.3C71.3941 192.76 70.2841 192.49 68.8641 192.49H63.0141V199.57ZM63.0141 190.09H68.3241C69.8441 190.09 70.9841 189.8 71.7441 189.22C72.5041 188.64 72.8841 187.79 72.8841 186.67C72.8841 185.55 72.5041 184.7 71.7441 184.12C70.9841 183.54 69.8441 183.25 68.3241 183.25H63.0141V190.09ZM86.6213 202.27C84.8013 202.27 83.4313 201.78 82.5113 200.8C81.6113 199.8 81.1613 198.27 81.1613 196.21V186.88H84.1913V196.15C84.1913 197.41 84.4513 198.34 84.9713 198.94C85.4913 199.54 86.2813 199.84 87.3413 199.84C88.5413 199.84 89.5113 199.44 90.2513 198.64C90.9913 197.84 91.3613 196.78 91.3613 195.46V186.88H94.3913V202H91.4513V198.76H91.8413C91.4213 199.88 90.7513 200.75 89.8313 201.37C88.9113 201.97 87.8413 202.27 86.6213 202.27ZM105.619 202.27C104.299 202.27 103.129 201.96 102.109 201.34C101.109 200.72 100.329 199.82 99.7694 198.64C99.2294 197.46 98.9594 196.06 98.9594 194.44C98.9594 192.8 99.2294 191.4 99.7694 190.24C100.329 189.08 101.109 188.19 102.109 187.57C103.129 186.93 104.299 186.61 105.619 186.61C106.919 186.61 108.059 186.94 109.039 187.6C110.039 188.24 110.699 189.12 111.019 190.24H110.659V179.92H113.689V202H110.689V198.58H111.049C110.709 199.72 110.049 200.62 109.069 201.28C108.089 201.94 106.939 202.27 105.619 202.27ZM106.369 199.9C107.669 199.9 108.719 199.44 109.519 198.52C110.319 197.6 110.719 196.24 110.719 194.44C110.719 192.64 110.319 191.29 109.519 190.39C108.719 189.47 107.669 189.01 106.369 189.01C105.049 189.01 103.989 189.47 103.189 190.39C102.409 191.29 102.019 192.64 102.019 194.44C102.019 196.24 102.409 197.6 103.189 198.52C103.989 199.44 105.049 199.9 106.369 199.9ZM125.921 208.72C124.561 208.72 123.321 208.56 122.201 208.24C121.101 207.92 120.111 207.44 119.231 206.8L119.981 204.58C120.601 205 121.211 205.33 121.811 205.57C122.411 205.83 123.041 206.02 123.701 206.14C124.361 206.26 125.041 206.32 125.741 206.32C127.181 206.32 128.261 205.95 128.981 205.21C129.721 204.49 130.091 203.44 130.091 202.06V198.01H130.391C130.071 199.13 129.411 200.02 128.411 200.68C127.431 201.32 126.291 201.64 124.991 201.64C123.611 201.64 122.411 201.34 121.391 200.74C120.391 200.12 119.611 199.25 119.051 198.13C118.511 196.99 118.241 195.65 118.241 194.11C118.241 192.57 118.511 191.24 119.051 190.12C119.611 189 120.391 188.14 121.391 187.54C122.411 186.92 123.611 186.61 124.991 186.61C126.311 186.61 127.451 186.94 128.411 187.6C129.391 188.24 130.041 189.12 130.361 190.24L130.091 190L130.361 186.88H133.301C133.221 187.5 133.161 188.12 133.121 188.74C133.081 189.34 133.061 189.93 133.061 190.51V201.7C133.061 203.98 132.451 205.72 131.231 206.92C130.031 208.12 128.261 208.72 125.921 208.72ZM125.711 199.27C127.031 199.27 128.081 198.82 128.861 197.92C129.661 197.02 130.061 195.75 130.061 194.11C130.061 192.47 129.661 191.21 128.861 190.33C128.081 189.45 127.031 189.01 125.711 189.01C124.351 189.01 123.271 189.45 122.471 190.33C121.691 191.21 121.301 192.47 121.301 194.11C121.301 195.75 121.691 197.02 122.471 197.92C123.271 198.82 124.351 199.27 125.711 199.27ZM145.47 202.27C143.03 202.27 141.11 201.58 139.71 200.2C138.31 198.82 137.61 196.91 137.61 194.47C137.61 192.89 137.91 191.51 138.51 190.33C139.13 189.15 139.98 188.24 141.06 187.6C142.16 186.94 143.43 186.61 144.87 186.61C146.29 186.61 147.48 186.91 148.44 187.51C149.4 188.11 150.13 188.96 150.63 190.06C151.13 191.14 151.38 192.42 151.38 193.9V194.86H139.98V193.12H149.31L148.8 193.51C148.8 192.01 148.46 190.85 147.78 190.03C147.12 189.19 146.16 188.77 144.9 188.77C143.5 188.77 142.42 189.26 141.66 190.24C140.9 191.2 140.52 192.53 140.52 194.23V194.53C140.52 196.31 140.95 197.65 141.81 198.55C142.69 199.45 143.93 199.9 145.53 199.9C146.41 199.9 147.23 199.78 147.99 199.54C148.77 199.28 149.51 198.86 150.21 198.28L151.2 200.35C150.5 200.97 149.65 201.45 148.65 201.79C147.65 202.11 146.59 202.27 145.47 202.27ZM161.707 202.27C160.067 202.27 158.827 201.83 157.987 200.95C157.147 200.05 156.727 198.71 156.727 196.93V189.22H153.787V186.88H156.727V182.89L159.757 182.08V186.88H163.957V189.22H159.757V196.66C159.757 197.78 159.957 198.58 160.357 199.06C160.757 199.54 161.337 199.78 162.097 199.78C162.477 199.78 162.807 199.75 163.087 199.69C163.387 199.61 163.657 199.52 163.897 199.42V201.88C163.597 202 163.247 202.09 162.847 202.15C162.447 202.23 162.067 202.27 161.707 202.27Z" fill="#00ADEE"/>
</g>
<defs>
<clipPath id="clip0_995_896">
<rect width="222" height="222" fill="white"/>
</clipPath>
</defs>
</svg>
