<svg width="298" height="298" viewBox="0 0 298 298" fill="none" xmlns="http://www.w3.org/2000/svg">
<path d="M270.661 145.124C258.324 133.98 240.338 128.019 217.272 127.449L208.616 127.242L204.417 124.131C191.925 114.853 176.582 107.285 160.151 102.309L154.449 100.547L131.124 100.443C112.257 100.34 107.281 100.495 105.104 101.065C97.173 103.242 76.1285 112.469 64.7769 118.793L58.5568 122.265L47.6717 122.576C35.5426 122.887 34.8169 123.043 31.9661 126.516C29.8409 129.056 29.2707 131.751 29.2707 138.8V144.761L26.5754 146.99C22.636 150.308 21.8067 152.588 22.2213 158.912C22.9988 170.056 24.191 173.011 28.9079 175.24C31.4478 176.432 32.1216 176.484 41.5035 176.484H51.4556L51.8184 178.401C52.8551 183.948 57.6238 190.686 62.9109 194.055C70.9451 199.187 81.7266 198.98 89.9163 193.537C94.685 190.323 99.2464 183.585 100.076 178.401L100.439 176.484H204.314L204.676 178.453C205.143 181.512 208.408 187.576 210.948 190.22C219.086 198.565 232.252 200.224 241.738 194.159C247.128 190.686 251.897 184 252.934 178.401L253.296 176.484H260.501C270.298 176.484 272.371 175.602 274.756 170.523C275.896 168.138 276 167.257 276 160.156C276 150.722 275.585 149.53 270.661 145.124ZM145.016 107.026C151.132 107.026 152.583 107.182 157.559 108.581C170.518 112.262 184.979 118.844 195.657 126.049L197.471 127.242H148.229L143.15 117.497C140.402 112.106 138.122 107.545 138.122 107.389C138.122 107.182 141.232 107.026 145.016 107.026ZM85.3031 116.149C85.9251 115.527 98.417 110.292 103.134 108.633L107.799 107.026L119.099 107.182L130.45 107.285L135.634 117.238L140.817 127.242H98.6244L93.3373 123.095C85.3549 116.823 84.9921 116.46 85.3031 116.149ZM92.3525 180.734C90.5901 184.311 87.4801 187.524 83.9554 189.338C80.2234 191.256 73.7441 191.567 69.5974 189.96C61.0967 186.799 56.0688 176.95 58.505 168.449C59.5935 164.873 60.371 163.473 63.17 160.519C68.3534 154.973 76.3877 153.521 83.5407 156.787C87.3764 158.549 90.642 161.763 92.4561 165.599C93.5965 168.035 93.8038 169.175 93.8038 173.114C93.8038 177.157 93.5965 178.142 92.3525 180.734ZM240.908 186.332C236.969 189.96 233.444 191.153 227.794 190.893C224.373 190.686 222.818 190.375 220.797 189.338C217.272 187.524 214.162 184.311 212.4 180.734C211.156 178.142 210.948 177.157 210.948 173.114C210.948 169.071 211.156 168.087 212.4 165.495C214.162 161.97 217.324 158.705 220.641 156.994C223.129 155.75 227.691 154.713 229.608 155.024C230.179 155.076 231.578 155.335 232.667 155.491C235.984 156.009 239.353 158.083 242.204 161.193C248.891 168.501 248.32 179.594 240.908 186.332ZM268.587 168.398C267.706 169.745 267.654 169.745 260.501 169.745H253.296L252.934 167.776C252.208 163.784 249.253 158.653 245.729 155.387C240.545 150.515 235.569 148.545 228.52 148.493C221.885 148.493 215.717 151.137 210.948 156.009C208.408 158.653 205.143 164.717 204.676 167.776L204.314 169.745H100.439L100.076 167.776C99.6092 164.717 96.3437 158.653 93.8038 156.009C89.0351 151.137 82.8669 148.493 76.2322 148.493C69.1828 148.545 64.2067 150.515 59.0233 155.387C55.4986 158.653 52.5441 163.784 51.8184 167.776L51.4556 169.745H41.8663C36.372 169.745 31.9143 169.538 31.3441 169.227C29.9964 168.501 29.3744 165.91 28.9597 159.378L28.5969 153.936L31.3441 151.655C35.3353 148.286 36.0091 146.472 36.0091 138.593C36.0091 132.84 36.1128 131.907 37.0458 130.714L38.0825 129.419L48.8639 129.211L59.5935 129.004L68.6644 124.235C73.6405 121.643 77.7872 119.466 77.8909 119.466C77.9427 119.466 81.4674 122.214 85.6659 125.531C89.8126 128.848 94.063 132.114 95.0478 132.788L96.8102 133.98H158.544C196.383 133.98 222.404 134.187 225.825 134.498C239.353 135.794 251.949 139.785 260.45 145.539C264.804 148.442 268.38 151.811 269.106 153.625C270.246 156.268 269.831 166.48 268.587 168.398Z" fill="#FBAD17"/>
<path d="M72.7075 162.074C71.6708 162.333 69.8566 163.422 68.6645 164.458C61.0449 170.938 64.5178 182.652 74.5217 184.466C79.0831 185.295 84.5774 182.082 86.5471 177.417C88.9833 171.456 85.5104 164.044 79.3422 162.229C76.4395 161.348 75.4547 161.348 72.7075 162.074ZM78.9794 169.538C80.3271 170.627 80.5862 171.249 80.5862 173.115C80.5862 174.981 80.3271 175.603 78.9276 176.743C74.2625 180.682 68.4571 173.996 72.7593 169.694C74.6772 167.776 76.8542 167.724 78.9794 169.538Z" fill="#FBAD17"/>
<path d="M225.618 162.074C224.581 162.333 222.767 163.422 221.575 164.458C216.028 169.175 216.028 177.054 221.575 181.823C229.091 188.25 240.287 182.704 240.235 172.596C240.183 168.087 236.244 163.162 231.682 162.022C229.039 161.348 228.261 161.348 225.618 162.074ZM231.993 169.694C234.896 172.596 233.393 177.209 229.298 177.831C227.847 178.091 227.173 177.883 225.825 176.743C224.426 175.603 224.166 174.981 224.166 173.115C224.166 171.249 224.426 170.627 225.773 169.538C227.898 167.724 230.075 167.776 231.993 169.694Z" fill="#FBAD17"/>
<path d="M99.5164 236V214.85H102.636V233.33H113.016V236H99.5164ZM121.876 236.27C120.056 236.27 118.686 235.78 117.766 234.8C116.866 233.8 116.416 232.27 116.416 230.21V220.88H119.446V230.15C119.446 231.41 119.706 232.34 120.226 232.94C120.746 233.54 121.536 233.84 122.596 233.84C123.796 233.84 124.766 233.44 125.506 232.64C126.246 231.84 126.616 230.78 126.616 229.46V220.88H129.646V236H126.706V232.76H127.096C126.676 233.88 126.006 234.75 125.086 235.37C124.166 235.97 123.096 236.27 121.876 236.27ZM132.924 236L139.794 227.48V228.92L133.284 220.88H136.914L141.504 226.79H140.424L145.014 220.88H148.614L142.164 228.89V227.51L149.004 236H145.374L140.424 229.67H141.504L136.524 236H132.924ZM157.685 236.27C155.865 236.27 154.495 235.78 153.575 234.8C152.675 233.8 152.225 232.27 152.225 230.21V220.88H155.255V230.15C155.255 231.41 155.515 232.34 156.035 232.94C156.555 233.54 157.345 233.84 158.405 233.84C159.605 233.84 160.575 233.44 161.315 232.64C162.055 231.84 162.425 230.78 162.425 229.46V220.88H165.455V236H162.515V232.76H162.905C162.485 233.88 161.815 234.75 160.895 235.37C159.975 235.97 158.905 236.27 157.685 236.27ZM170.833 236V224.63C170.833 224.01 170.813 223.39 170.773 222.77C170.753 222.13 170.713 221.5 170.653 220.88H173.593L173.923 224.78H173.443C173.643 223.84 173.983 223.06 174.463 222.44C174.943 221.82 175.523 221.36 176.203 221.06C176.903 220.76 177.633 220.61 178.393 220.61C178.713 220.61 178.983 220.63 179.203 220.67C179.423 220.69 179.643 220.73 179.863 220.79L179.833 223.49C179.493 223.35 179.193 223.27 178.933 223.25C178.693 223.21 178.393 223.19 178.033 223.19C177.153 223.19 176.403 223.39 175.783 223.79C175.163 224.17 174.693 224.69 174.373 225.35C174.053 226.01 173.893 226.72 173.893 227.48V236H170.833ZM183.66 242.81L182.94 240.35C183.88 240.15 184.66 239.91 185.28 239.63C185.92 239.35 186.45 238.98 186.87 238.52C187.29 238.08 187.65 237.51 187.95 236.81L188.7 235.04L188.64 236.27L182.07 220.88H185.31L190.41 233.48H189.6L194.7 220.88H197.82L190.89 237.08C190.45 238.08 189.98 238.92 189.48 239.6C188.98 240.28 188.44 240.83 187.86 241.25C187.28 241.67 186.64 242 185.94 242.24C185.24 242.48 184.48 242.67 183.66 242.81Z" fill="#FBAD17"/>
</svg>
