<svg width="234" height="130" viewBox="0 0 234 130" fill="none" xmlns="http://www.w3.org/2000/svg">
<path d="M230.903 48.9265C228.323 45.5531 227.232 45.305 203.568 42.7253L182.038 40.3937L163.186 21.691C149.296 7.94917 143.64 2.69057 141.705 1.64879L139.076 0.25972L85.498 0.160507C56.0301 0.110886 31.3742 0.25972 30.6797 0.45816C28.2984 1.2023 25.2227 2.98824 23.6352 4.62534C21.5516 6.70894 1.70781 40.2449 0.963672 42.9238C0.616406 44.2632 0.417969 53.3418 0.417969 70.0601C0.417969 93.4757 0.467578 95.3113 1.31094 96.1546C1.75742 96.6011 6.96641 98.7839 12.8203 100.917C18.6742 103.05 23.6352 104.935 23.8336 105.134C24.032 105.332 24.677 107.218 25.2227 109.351C26.4133 114.113 28.1992 117.487 31.4238 121.009C34.4996 124.382 38.6668 127.111 42.9828 128.599C47.6957 130.187 55.3355 130.187 60.0484 128.599C68.9285 125.523 76.1219 117.685 77.9078 109.103L78.5031 106.176H149.742V107.317C149.742 109.003 151.528 113.915 153.066 116.544C156.191 121.852 161.896 126.516 167.998 128.599C172.711 130.187 180.351 130.187 185.064 128.599C193.944 125.523 201.137 117.685 202.923 109.103L203.519 106.176H217.459C231.399 106.176 231.449 106.176 232.491 105.035C233.582 103.894 233.582 103.894 233.582 79.089C233.532 52.4984 233.532 52.3496 230.903 48.9265ZM7.36328 63.5117H20.2617V65C20.2617 66.6867 19.3687 67.6789 14.6559 71.2507C12.225 73.0367 11.332 73.4335 9.54609 73.4335H7.36328V63.5117ZM54.641 122.696C48.4398 123.787 42.4371 121.852 37.5754 117.239C32.6145 112.526 30.4316 106.027 31.523 99.4785C32.2672 95.2121 33.8051 92.0867 36.7816 88.9613C42.1395 83.2562 49.2336 81.1726 56.675 83.1074C60.4949 84.0996 63.273 85.7863 66.2496 88.9613C77.3621 100.719 70.7641 119.967 54.641 122.696ZM179.657 122.696C173.455 123.787 167.453 121.852 162.591 117.239C157.63 112.526 155.447 106.027 156.539 99.4785C157.283 95.2121 158.821 92.0867 161.797 88.9613C167.155 83.2562 174.249 81.1726 181.691 83.1074C185.511 84.0996 188.289 85.7863 191.265 88.9613C202.378 100.719 195.78 119.967 179.657 122.696ZM226.637 99.2304H203.519L202.923 96.3035C201.137 87.721 193.944 79.8828 185.064 76.807C180.351 75.2195 172.711 75.2195 167.998 76.807C161.896 78.8906 156.191 83.5539 153.066 88.8621C151.528 91.4914 149.742 96.4027 149.742 98.0894V99.2304H78.5031L77.9078 96.3035C76.1219 87.721 68.9285 79.8828 60.0484 76.807C55.3355 75.2195 47.6957 75.2195 43.0324 76.807C34.698 79.6843 28.1 86.3816 25.6195 94.4183C25.0242 96.4027 24.3793 97.7421 24.032 97.5933C23.7344 97.4941 19.8648 96.105 15.4496 94.4679L7.36328 91.541V80.3789L9.99258 80.3293C13.7133 80.2796 15.4 79.5355 20.2617 75.666C26.3637 70.8539 26.9094 69.9609 27.1078 64.0574C27.3062 59.8406 27.207 59.146 26.3141 58.0546C25.3219 56.8144 25.2227 56.8144 16.3426 56.6656L7.36328 56.4671V51.0597C7.36328 47.5871 7.61133 45.057 8.05781 44.0152C8.75234 42.3285 26.066 12.8109 27.852 10.2312C28.3977 9.48706 29.7371 8.39565 30.8781 7.89956C32.8129 7.00659 35.2437 6.95699 84.6547 6.95699C130.196 6.95699 136.596 7.05621 138.233 7.70113C139.423 8.24683 145.575 13.9519 156.439 24.7171C165.468 33.6468 174.249 42.3285 176.035 44.0152L179.26 47.0414L200.344 49.3234C211.952 50.5636 222.271 51.8535 223.263 52.1015C225.694 52.796 226.637 54.2347 226.637 57.3105V59.8406L216.616 58.7492C211.059 58.1042 204.312 57.4593 201.534 57.2609C196.673 56.9136 196.524 56.9632 195.73 58.1042C195.234 58.7492 194.887 59.6421 194.887 60.0886C194.887 60.5847 196.226 64.1566 197.863 68.0757C201.137 75.9636 203.37 78.7914 207.091 79.8332C208.132 80.1308 212.994 80.3789 217.856 80.3789H226.637V99.2304ZM226.637 70.2089V73.4335H217.856C207.438 73.4335 207.537 73.4832 205.354 68.0757C204.164 65.248 204.015 64.5039 204.61 64.5039C205.007 64.5039 209.621 64.9503 214.879 65.496C227.877 66.8851 226.637 66.389 226.637 70.2089Z" fill="#00ADEE"/>
<path d="M32.0197 13.0094C31.3251 13.6543 28.6462 17.7719 26.0169 22.1871C21.056 30.6207 20.4111 32.5555 22.1474 34.0437C22.6435 34.4406 29.2911 37.566 36.8814 40.9891L50.6728 47.1406H107.872H165.072L166.064 45.8508C166.66 45.1066 167.106 44.0648 167.106 43.4695C167.106 42.775 162.294 37.6156 151.826 27.148L136.497 11.918H84.8536H33.2103L32.0197 13.0094ZM65.9029 29.5293V40.1953H59.0568H52.2107L41.0982 35.2344C35.0458 32.5059 29.9361 30.1742 29.8369 30.075C29.6384 29.8766 34.649 20.8973 35.79 19.4586C36.1372 19.0121 39.8083 18.8633 51.0697 18.8633H65.9029V29.5293ZM104.549 20.6988C104.797 21.7406 105.938 26.1559 107.079 30.5215C108.22 34.8871 109.261 38.8559 109.361 39.3023C109.609 40.1457 108.517 40.1953 91.2533 40.1953H72.8482V29.5293V18.8633H88.4751H104.052L104.549 20.6988ZM144.286 29.5293L154.952 40.1953H135.852H116.703L114.123 29.8766C112.685 24.2211 111.494 19.4586 111.543 19.2105C111.543 19.0121 116.504 18.8633 122.606 18.8633H133.62L144.286 29.5293Z" fill="#00ADEE"/>
<path d="M111.643 54.2348C110.204 55.723 110.254 57.3105 111.791 58.7988C112.932 59.9895 113.28 60.0391 118.985 60.0391C124.69 60.0391 125.037 59.9895 126.178 58.7988C127.716 57.3105 127.766 55.5742 126.277 54.1852C125.236 53.193 124.591 53.0938 118.935 53.0938C113.081 53.0938 112.635 53.1434 111.643 54.2348Z" fill="#00ADEE"/>
<path d="M47.7954 87.7707C43.6282 88.8621 39.7091 92.1363 37.5759 96.2539C35.9388 99.3792 35.9388 105.332 37.5263 108.954C38.965 112.129 42.0904 115.205 45.315 116.693C48.7876 118.28 54.2447 118.28 57.7173 116.693C63.3728 114.113 66.5974 109.053 66.5974 102.703C66.5974 96.3531 63.3232 91.2433 57.7669 88.7628C55.1376 87.6218 50.2263 87.1257 47.7954 87.7707ZM54.6415 94.964C56.8243 95.857 59.3544 98.8335 59.7513 100.967C60.297 103.943 59.5529 106.225 57.2708 108.458C53.6989 112.03 49.3333 112.03 45.7614 108.458C42.4376 105.134 42.1896 100.818 45.2157 97.3949C47.845 94.4183 51.2681 93.5253 54.6415 94.964Z" fill="#00ADEE"/>
<path d="M172.811 87.7707C168.644 88.8621 164.725 92.1363 162.592 96.2539C160.954 99.3792 160.954 105.332 162.542 108.954C163.981 112.129 167.106 115.205 170.331 116.693C173.803 118.28 179.26 118.28 182.733 116.693C188.388 114.113 191.613 109.053 191.613 102.703C191.613 96.3531 188.339 91.2433 182.783 88.7628C180.153 87.6218 175.242 87.1257 172.811 87.7707ZM179.657 94.964C181.84 95.857 184.37 98.8335 184.767 100.967C185.313 103.943 184.568 106.225 182.286 108.458C178.715 112.03 174.349 112.03 170.777 108.458C167.453 105.134 167.205 100.818 170.231 97.3949C172.861 94.4183 176.284 93.5253 179.657 94.964Z" fill="#00ADEE"/>
</svg>
