<svg width="242" height="242" viewBox="0 0 242 242" fill="none" xmlns="http://www.w3.org/2000/svg">
<path d="M169.156 161.608H86.6562C84.5937 161.608 83.2188 160.233 83.2188 158.17C83.2188 156.108 84.5937 154.733 86.6562 154.733H169.156C171.219 154.733 172.594 156.108 172.594 158.17C172.594 160.233 171.219 161.608 169.156 161.608Z" fill="#00ADEE"/>
<path d="M212.125 161.608C210.406 161.608 208.688 160.233 208.688 158.17C208.688 156.108 210.062 154.733 212.125 154.733L220.031 154.389C221.062 154.389 222.781 153.701 223.125 152.67C223.125 152.326 223.125 152.326 223.469 151.983C223.812 151.639 223.469 151.639 223.469 151.295V119.326C223.469 114.17 221.75 109.358 218.312 105.576L183.25 68.1077C179.469 63.9827 173.969 61.5764 168.125 61.5764H27.1875C21.3438 61.5764 16.875 66.0452 16.875 71.8889V147.858C16.875 151.639 19.9688 154.733 23.75 154.733H44.0312C46.0938 154.733 47.4688 156.108 47.4688 158.17C47.4688 160.233 46.0938 161.608 44.0312 161.608H23.75C16.1875 161.608 10 155.42 10 147.858V71.8889C10 62.2639 17.5625 54.7014 27.1875 54.7014H168.125C175.688 54.7014 183.25 57.7952 188.062 63.2952L222.781 100.764C227.25 105.576 230 112.451 230 119.326V151.295C230 151.983 230 153.358 229.312 154.389C228.281 158.17 224.844 160.576 220.375 161.264L212.125 161.608Z" fill="#00ADEE"/>
<path d="M195.625 109.014H152.656C148.875 109.014 145.781 105.92 145.781 102.139V75.3264C145.781 71.5452 148.875 68.4514 152.656 68.4514H168.125C171.562 68.4514 175.344 70.1702 178.094 72.9202L200.781 97.3264C202.5 99.0452 203.188 101.795 202.156 104.545C201.125 107.295 198.375 109.014 195.625 109.014ZM152.656 75.3264V102.139H195.625L195.969 101.795L173.281 77.7327C171.906 76.3577 169.844 75.3264 168.125 75.3264H152.656ZM119.656 109.014H30.625C26.8438 109.014 23.75 105.92 23.75 102.139V75.3264C23.75 71.5452 26.8438 68.4514 30.625 68.4514H130.656C133.062 68.4514 135.125 69.4827 136.5 71.5452C137.875 73.6077 137.875 76.0139 137.188 78.0764L126.188 104.889C126.188 105.233 125.844 105.233 125.844 105.576C123.438 108.67 121.031 109.014 119.656 109.014ZM30.625 75.3264V102.139H119.312L119.656 101.795L130.656 75.3264H30.625ZM190.469 182.92C176.719 182.92 165.719 171.92 165.719 158.17C165.719 144.42 176.719 133.42 190.469 133.42C204.219 133.42 215.219 144.42 215.219 158.17C215.219 171.92 204.219 182.92 190.469 182.92ZM190.469 140.295C180.5 140.295 172.594 148.201 172.594 158.17C172.594 168.139 180.5 176.045 190.469 176.045C200.438 176.045 208.344 168.139 208.344 158.17C208.344 148.201 200.438 140.295 190.469 140.295ZM65.3438 182.92C51.5938 182.92 40.5937 171.92 40.5937 158.17C40.5937 144.42 51.5938 133.42 65.3438 133.42C79.0938 133.42 90.0938 144.42 90.0938 158.17C90.0938 171.92 79.0938 182.92 65.3438 182.92ZM65.3438 140.295C55.375 140.295 47.4687 148.201 47.4687 158.17C47.4687 168.139 55.375 176.045 65.3438 176.045C75.3125 176.045 83.2187 168.139 83.2187 158.17C83.2187 148.201 75.3125 140.295 65.3438 140.295ZM165.375 120.701H156.781C154.719 120.701 153.344 119.326 153.344 117.264C153.344 115.201 154.719 113.826 156.781 113.826H165.375C167.438 113.826 168.812 115.201 168.812 117.264C168.812 119.326 167.438 120.701 165.375 120.701ZM121.375 126.889C119.313 126.889 117.938 125.514 117.938 123.451V117.264C117.938 115.201 119.313 113.826 121.375 113.826C123.438 113.826 124.813 115.201 124.813 117.264V123.451C124.813 125.514 123.438 126.889 121.375 126.889Z" fill="#00ADEE"/>
<path d="M65.3438 167.28C70.3747 167.28 74.4531 163.201 74.4531 158.17C74.4531 153.139 70.3747 149.061 65.3438 149.061C60.3128 149.061 56.2344 153.139 56.2344 158.17C56.2344 163.201 60.3128 167.28 65.3438 167.28Z" fill="#00ADEE"/>
<path d="M190.469 167.28C195.5 167.28 199.578 163.201 199.578 158.17C199.578 153.139 195.5 149.061 190.469 149.061C185.438 149.061 181.359 153.139 181.359 158.17C181.359 163.201 185.438 167.28 190.469 167.28Z" fill="#00ADEE"/>
<path d="M82.6248 210V188.85H85.7448V197.97H97.6248V188.85H100.745V210H97.6248V200.58H85.7448V210H82.6248ZM106.441 210V194.88H109.471V210H106.441ZM106.201 191.73V188.58H109.711V191.73H106.201ZM112.991 210L122.411 188.85H125.081L134.651 210H131.441L128.831 204L130.151 204.84H117.341L118.751 204L116.141 210H112.991ZM123.701 192.27L119.141 203.04L118.421 202.35H129.071L128.471 203.04L123.821 192.27H123.701ZM144.661 210.27C143.141 210.27 141.811 209.96 140.671 209.34C139.551 208.7 138.681 207.79 138.061 206.61C137.461 205.41 137.161 203.99 137.161 202.35C137.161 200.73 137.471 199.34 138.091 198.18C138.711 197.02 139.581 196.14 140.701 195.54C141.821 194.92 143.141 194.61 144.661 194.61C145.641 194.61 146.591 194.78 147.511 195.12C148.431 195.44 149.191 195.9 149.791 196.5L148.801 198.63C148.241 198.09 147.611 197.69 146.911 197.43C146.211 197.15 145.531 197.01 144.871 197.01C143.431 197.01 142.301 197.47 141.481 198.39C140.661 199.31 140.251 200.64 140.251 202.38C140.251 204.14 140.661 205.49 141.481 206.43C142.301 207.37 143.431 207.84 144.871 207.84C145.511 207.84 146.181 207.72 146.881 207.48C147.581 207.22 148.221 206.81 148.801 206.25L149.791 208.38C149.171 208.98 148.391 209.45 147.451 209.79C146.531 210.11 145.601 210.27 144.661 210.27ZM160.698 210.27C158.258 210.27 156.338 209.58 154.938 208.2C153.538 206.82 152.838 204.91 152.838 202.47C152.838 200.89 153.138 199.51 153.738 198.33C154.358 197.15 155.208 196.24 156.288 195.6C157.388 194.94 158.658 194.61 160.098 194.61C161.518 194.61 162.708 194.91 163.668 195.51C164.628 196.11 165.358 196.96 165.858 198.06C166.358 199.14 166.608 200.42 166.608 201.9V202.86H155.208V201.12H164.538L164.028 201.51C164.028 200.01 163.688 198.85 163.008 198.03C162.348 197.19 161.388 196.77 160.128 196.77C158.728 196.77 157.648 197.26 156.888 198.24C156.128 199.2 155.748 200.53 155.748 202.23V202.53C155.748 204.31 156.178 205.65 157.038 206.55C157.918 207.45 159.158 207.9 160.758 207.9C161.638 207.9 162.458 207.78 163.218 207.54C163.998 207.28 164.738 206.86 165.438 206.28L166.428 208.35C165.728 208.97 164.878 209.45 163.878 209.79C162.878 210.11 161.818 210.27 160.698 210.27Z" fill="#00ADEE"/>
</svg>
