<svg width="242" height="242" viewBox="0 0 242 242" fill="none" xmlns="http://www.w3.org/2000/svg">
<path d="M175.072 167.887H84.3223C82.0535 167.887 80.541 166.375 80.541 164.106C80.541 161.837 82.0535 160.325 84.3223 160.325H175.072C177.341 160.325 178.854 161.837 178.854 164.106C178.854 166.375 177.341 167.887 175.072 167.887Z" fill="#FBAD17"/>
<path d="M222.337 167.887C220.447 167.887 218.556 166.375 218.556 164.106C218.556 161.837 220.069 160.325 222.337 160.325L231.034 159.947C232.169 159.947 234.059 159.191 234.438 158.056C234.438 157.678 234.438 157.678 234.816 157.3C235.194 156.922 234.816 156.922 234.816 156.544V121.378C234.816 115.706 232.925 110.412 229.144 106.253L190.575 65.0374C186.416 60.4999 180.366 57.853 173.938 57.853H18.9062C12.4781 57.853 7.5625 62.7686 7.5625 69.1968V152.762C7.5625 156.922 10.9656 160.325 15.125 160.325H37.4344C39.7031 160.325 41.2156 161.837 41.2156 164.106C41.2156 166.375 39.7031 167.887 37.4344 167.887H15.125C6.80625 167.887 0 161.081 0 152.762V69.1968C0 58.6093 8.31875 50.2905 18.9062 50.2905H173.938C182.256 50.2905 190.575 53.6937 195.869 59.7437L234.059 100.959C238.975 106.253 242 113.816 242 121.378V156.544C242 157.3 242 158.812 241.244 159.947C240.109 164.106 236.328 166.753 231.413 167.509L222.337 167.887Z" fill="#FBAD17"/>
<path d="M204.188 110.034H156.922C152.762 110.034 149.359 106.631 149.359 102.472V72.978C149.359 68.8187 152.762 65.4155 156.922 65.4155H173.938C177.719 65.4155 181.878 67.3062 184.903 70.3312L209.859 97.178C211.75 99.0687 212.506 102.094 211.372 105.119C210.238 108.144 207.212 110.034 204.188 110.034ZM156.922 72.978V102.472H204.188L204.566 102.094L179.609 75.6249C178.097 74.1124 175.828 72.978 173.938 72.978H156.922ZM120.622 110.034H22.6875C18.5281 110.034 15.125 106.631 15.125 102.472V72.978C15.125 68.8187 18.5281 65.4155 22.6875 65.4155H132.722C135.369 65.4155 137.637 66.5499 139.15 68.8187C140.662 71.0874 140.662 73.7343 139.906 76.003L127.806 105.497C127.806 105.875 127.428 105.875 127.428 106.253C124.781 109.656 122.134 110.034 120.622 110.034ZM22.6875 72.978V102.472H120.244L120.622 102.094L132.722 72.978H22.6875ZM198.516 191.331C183.391 191.331 171.291 179.231 171.291 164.106C171.291 148.981 183.391 136.881 198.516 136.881C213.641 136.881 225.741 148.981 225.741 164.106C225.741 179.231 213.641 191.331 198.516 191.331ZM198.516 144.444C187.55 144.444 178.853 153.141 178.853 164.106C178.853 175.072 187.55 183.769 198.516 183.769C209.481 183.769 218.178 175.072 218.178 164.106C218.178 153.141 209.481 144.444 198.516 144.444ZM60.8781 191.331C45.7531 191.331 33.6531 179.231 33.6531 164.106C33.6531 148.981 45.7531 136.881 60.8781 136.881C76.0031 136.881 88.1031 148.981 88.1031 164.106C88.1031 179.231 76.0031 191.331 60.8781 191.331ZM60.8781 144.444C49.9125 144.444 41.2156 153.141 41.2156 164.106C41.2156 175.072 49.9125 183.769 60.8781 183.769C71.8438 183.769 80.5406 175.072 80.5406 164.106C80.5406 153.141 71.8438 144.444 60.8781 144.444ZM170.913 122.891H161.459C159.191 122.891 157.678 121.378 157.678 119.109C157.678 116.841 159.191 115.328 161.459 115.328H170.913C173.181 115.328 174.694 116.841 174.694 119.109C174.694 121.378 173.181 122.891 170.913 122.891ZM122.513 129.697C120.244 129.697 118.731 128.184 118.731 125.916V119.109C118.731 116.841 120.244 115.328 122.513 115.328C124.781 115.328 126.294 116.841 126.294 119.109V125.916C126.294 128.184 124.781 129.697 122.513 129.697Z" fill="#FBAD17"/>
<path d="M60.8777 174.127C66.4118 174.127 70.898 169.64 70.898 164.106C70.898 158.572 66.4118 154.086 60.8777 154.086C55.3437 154.086 50.8574 158.572 50.8574 164.106C50.8574 169.64 55.3437 174.127 60.8777 174.127Z" fill="#FBAD17"/>
<path d="M198.516 174.127C204.05 174.127 208.537 169.64 208.537 164.106C208.537 158.572 204.05 154.086 198.516 154.086C192.982 154.086 188.496 158.572 188.496 164.106C188.496 169.64 192.982 174.127 198.516 174.127Z" fill="#FBAD17"/>
<path d="M82.6248 210V188.85H85.7448V197.97H97.6248V188.85H100.745V210H97.6248V200.58H85.7448V210H82.6248ZM106.441 210V194.88H109.471V210H106.441ZM106.201 191.73V188.58H109.711V191.73H106.201ZM112.991 210L122.411 188.85H125.081L134.651 210H131.441L128.831 204L130.151 204.84H117.341L118.751 204L116.141 210H112.991ZM123.701 192.27L119.141 203.04L118.421 202.35H129.071L128.471 203.04L123.821 192.27H123.701ZM144.661 210.27C143.141 210.27 141.811 209.96 140.671 209.34C139.551 208.7 138.681 207.79 138.061 206.61C137.461 205.41 137.161 203.99 137.161 202.35C137.161 200.73 137.471 199.34 138.091 198.18C138.711 197.02 139.581 196.14 140.701 195.54C141.821 194.92 143.141 194.61 144.661 194.61C145.641 194.61 146.591 194.78 147.511 195.12C148.431 195.44 149.191 195.9 149.791 196.5L148.801 198.63C148.241 198.09 147.611 197.69 146.911 197.43C146.211 197.15 145.531 197.01 144.871 197.01C143.431 197.01 142.301 197.47 141.481 198.39C140.661 199.31 140.251 200.64 140.251 202.38C140.251 204.14 140.661 205.49 141.481 206.43C142.301 207.37 143.431 207.84 144.871 207.84C145.511 207.84 146.181 207.72 146.881 207.48C147.581 207.22 148.221 206.81 148.801 206.25L149.791 208.38C149.171 208.98 148.391 209.45 147.451 209.79C146.531 210.11 145.601 210.27 144.661 210.27ZM160.698 210.27C158.258 210.27 156.338 209.58 154.938 208.2C153.538 206.82 152.838 204.91 152.838 202.47C152.838 200.89 153.138 199.51 153.738 198.33C154.358 197.15 155.208 196.24 156.288 195.6C157.388 194.94 158.658 194.61 160.098 194.61C161.518 194.61 162.708 194.91 163.668 195.51C164.628 196.11 165.358 196.96 165.858 198.06C166.358 199.14 166.608 200.42 166.608 201.9V202.86H155.208V201.12H164.538L164.028 201.51C164.028 200.01 163.688 198.85 163.008 198.03C162.348 197.19 161.388 196.77 160.128 196.77C158.728 196.77 157.648 197.26 156.888 198.24C156.128 199.2 155.748 200.53 155.748 202.23V202.53C155.748 204.31 156.178 205.65 157.038 206.55C157.918 207.45 159.158 207.9 160.758 207.9C161.638 207.9 162.458 207.78 163.218 207.54C163.998 207.28 164.738 206.86 165.438 206.28L166.428 208.35C165.728 208.97 164.878 209.45 163.878 209.79C162.878 210.11 161.818 210.27 160.698 210.27Z" fill="#FBAD17"/>
</svg>
