<svg xmlns="http://www.w3.org/2000/svg" width="305" height="104" viewBox="0 0 305 104" fill="none">
<path d="M304.895 76.4478C304.762 62.1532 301.021 48.9274 295.811 44.3853C291.803 40.9118 280.047 38.3067 243.442 32.963C231.953 31.2263 221.934 29.6231 220.664 29.2892C219.529 28.9552 214.987 26.7509 210.311 24.079C201.093 18.7352 182.256 9.38369 173.639 5.84345C166.626 2.97118 162.418 2.16963 150.194 1.30127C141.711 0.700099 105.106 0.566503 96.5559 1.10088C81.1258 2.03603 60.4188 8.98291 38.309 20.6056L30.2266 24.8138L20.0734 25.9493C16.3996 26.3501 9.11875 27.4188 7.71602 28.2204C4.17578 30.4247 3.97539 32.4954 3.30742 47.6583C3.04023 52.5345 2.70625 60.5501 2.17188 61.9528C1.10312 62.7544 0.835938 64.6915 0.835938 71.438C0.835938 78.5853 0.902734 80.322 2.70625 81.2571C5.44492 82.7266 16.266 83.595 18.4035 83.7286C31.7629 84.7306 32.5645 83.4614 32.9652 82.8603C33.4996 82.0587 34.034 78.4517 34.2344 76.381C35.2363 67.163 40.9141 59.2142 49.3973 55.0728C49.9984 54.8056 50.466 54.5384 50.9336 54.338C53.8059 52.8685 54.8746 52.3341 60.8863 52.3341C66.9648 52.3341 68.1672 52.9353 70.8391 54.338C71.173 54.4716 71.4402 54.672 71.841 54.8056C77.5188 57.5442 82.1277 62.1532 84.9332 67.831C86.9371 71.8388 87.2711 73.2415 87.5383 77.8505C87.6719 80.1216 87.9391 84.0626 89.0746 85.0645C89.5422 85.4653 89.7426 85.5989 107.11 86.1333C118.198 86.4673 132.559 86.8013 147.455 87.1353C178.783 87.7364 206.504 88.3376 209.309 88.4712C214.853 88.8052 215.922 88.0036 216.323 87.6696C217.458 86.7345 217.859 84.7974 218.059 79.1196C218.327 73.5087 218.594 72.0391 220.264 68.5657C223.604 61.4184 229.081 56.4087 236.161 53.9372C240.503 52.4677 248.252 52.4009 252.727 53.67C257.403 55.006 263.348 59.2809 266.22 63.2888C270.295 69.0333 271.497 72.9743 271.43 80.1884C271.43 86.8681 272.031 87.87 272.766 88.4044C273.501 88.9388 276.039 89.2728 279.312 89.5399C282.585 89.8071 286.526 89.8739 290 89.8739C294.141 89.8739 297.614 89.7403 298.75 89.4063C304.495 87.9368 304.962 85.9329 304.895 76.4478ZM299.351 83.4614C298.416 84.4634 295.076 84.5302 289.465 84.597L276.573 84.7974V80.1884C276.573 69.7013 273.234 61.8192 265.953 55.3399C259.941 49.9294 252.393 47.1907 244.845 47.1907C236.295 47.1907 227.745 50.5974 221.266 57.4106C215.588 63.2888 212.114 72.2396 212.448 80.1216C212.515 81.5911 212.515 82.4595 212.515 82.9938C205.034 83.0606 158.276 82.1255 110.85 80.9231L92.9488 80.4556L92.6149 76.9153C91.5461 63.5559 82.5953 52.4009 69.7035 48.5267C58.7488 45.1868 46.3246 48.3263 38.0418 56.5423C33.032 61.552 29.5586 68.7661 28.8906 75.4458L28.6234 78.7188L20.7414 78.3849C14.9301 78.0509 9.98711 77.5833 8.38398 77.1825L5.9793 76.6481V71.3712C5.9793 66.6954 6.31328 65.4263 6.44687 65.0923C7.44883 64.2907 7.78281 62.554 8.25039 48.9274C8.51758 40.845 9.05195 34.7665 9.25234 33.6978C9.45273 33.3638 9.71992 33.0298 10.1207 32.8294C9.71992 33.1634 9.25234 34.1653 9.25234 38.7743C9.25234 42.9157 9.25234 44.6524 12.1914 44.6524C17.6687 44.6524 25.2836 38.4403 25.2836 33.9649C25.2836 33.7645 25.2168 32.963 24.2148 32.5622C22.8121 32.0278 18.0027 31.961 17.0676 31.961C15.0637 31.961 13.5941 32.0278 12.5922 32.0946C14.3289 31.7606 16.934 31.4267 21.0754 30.9591L31.2953 29.9571L41.1812 24.8806C58.2812 16.197 77.1848 8.91611 87.2711 7.17939C96.7563 5.57626 132.292 5.24228 150.661 6.57822C162.618 7.51338 166.292 8.31494 174.909 12.1224C184.928 16.5978 202.896 25.7489 209.843 29.9571C212.983 31.7606 217.325 33.9649 219.329 34.4325C221.266 34.9669 232.955 36.7704 243.242 38.3067C279.112 43.5169 289.732 45.788 292.738 48.9942C296.212 52.7349 298.95 63.3556 299.485 75.4458C299.485 75.9802 299.552 76.5813 299.552 77.0489C299.952 80.4556 300.086 82.6599 299.351 83.4614ZM14.7297 38.3067V37.3048H16.7336C16.934 37.3048 17.0676 37.3048 17.268 37.3048C16.4664 37.8392 15.4645 38.4403 14.7297 38.8411C14.7297 38.7075 14.7297 38.5071 14.7297 38.3067Z" fill="#00adee"/>
<path d="M125.212 10.1852L124.611 6.57812L114.391 6.64493C109.047 6.71172 102.501 7.1125 99.3615 7.58008C84.8666 9.98477 84.5326 12.3895 84.4658 13.3246C84.1986 14.7941 86.2025 21.6074 86.8705 23.6113L89.6759 32.8293L98.2927 33.2969C104.171 33.6309 110.583 33.8313 116.127 33.8313C116.395 33.8313 116.662 33.8313 116.862 33.8313C126.414 33.8313 126.748 33.2969 127.149 32.6289C127.483 32.1613 127.683 31.8273 126.882 23.6781C126.347 19.2027 125.746 13.9926 125.212 10.1852ZM117.931 11.5211L120.135 11.5879L120.736 16.4641C121.004 18.468 121.271 20.9395 121.538 23.0102C121.672 24.3461 121.872 25.6152 121.939 26.4168L122.206 28.8883L108.379 28.5543C101.633 28.3539 95.7544 28.0867 93.6837 27.9531C92.8822 25.4816 90.6779 17.9336 89.8763 15.1949C90.8115 14.9277 92.4146 14.4602 94.6189 13.9258C100.631 12.4563 111.986 11.3207 117.931 11.5211Z" fill="#00adee"/>
<path d="M185.462 21.2067C172.704 12.6567 164.555 8.78251 157.34 7.91415C152.932 7.37977 146.386 6.97899 140.307 6.7786C129.687 6.44462 129.353 6.979 128.885 7.64696L128.818 7.71376C128.551 8.11454 128.15 8.8493 129.62 20.8727C131.156 33.0298 131.69 33.4306 132.292 33.8313C133.16 34.3657 135.698 34.5661 180.519 35.7017C186.998 35.902 191.14 35.9688 193.812 35.9688C197.753 35.9688 198.487 35.7016 199.155 35.1005C199.756 34.4993 199.756 33.8313 199.756 33.4306C199.756 31.0927 197.753 29.4227 185.462 21.2067ZM135.698 29.1556L135.03 21.8747C134.63 17.8669 134.095 13.1243 133.828 11.7884L142.645 12.1891C148.256 12.3895 155.136 12.9239 157.741 13.2579C164.621 14.3266 176.244 20.5388 188.935 29.9571L189.871 30.6919L175.376 30.3579C164.755 30.1575 151.262 29.7567 145.584 29.5563L135.698 29.1556Z" fill="#00adee"/>
<path d="M80.2583 15.195C78.7887 13.859 76.9852 14.527 73.3114 16.0633C71.4411 16.9317 68.1012 18.468 67.2997 19.2696C65.0954 21.4739 67.1661 23.6782 71.6415 28.5544C74.5805 31.7606 75.6493 32.4286 78.9223 32.7626C79.6571 32.8294 80.3919 32.8962 81.0598 32.8962C82.3958 32.8962 83.4645 32.629 84.1993 31.8274C85.4016 30.3579 84.934 28.02 83.5313 23.1438C83.2641 22.4758 81.3938 16.3305 80.2583 15.195ZM76.9852 20.2047C77.2524 20.9395 77.72 22.0751 78.1876 23.6114C78.6551 25.2813 79.1895 27.0848 79.3899 27.9532C79.3899 27.9532 79.3231 27.9532 79.2563 27.9532C79.1227 27.9532 78.1208 27.8196 75.1817 24.6133L72.9106 22.0751L74.5137 21.3403C75.5157 20.8727 76.384 20.4719 76.9852 20.2047Z" fill="#00adee"/>
<path d="M143.782 44.6523C137.971 44.6523 137.436 45.1867 137.169 45.4539C136.301 46.3891 136.435 47.1906 136.635 47.6582C137.169 48.9273 138.839 49.3281 143.715 49.3281C147.723 49.3281 150.328 49.3281 150.328 46.9902C150.328 44.6523 147.723 44.6523 143.782 44.6523Z" fill="#00adee"/>
<path d="M291.001 59.7485C291.268 59.7485 291.401 59.6817 291.535 59.6817C291.936 59.5481 293.272 59.0137 293.272 55.0059C293.272 50.8645 291.468 48.5934 287.126 47.4579C283.787 46.5227 275.838 46.5227 271.696 47.5247C269.826 47.9255 268.624 48.5266 268.223 49.3282C268.023 49.729 267.956 50.2634 268.156 50.6641C268.357 51.1985 268.824 51.5993 270.227 52.2673C272.765 53.5364 277.908 55.5403 281.85 56.943C288.262 59.2809 290.199 59.7485 291.001 59.7485ZM287.06 53.1356C286.392 52.9352 285.59 52.7348 284.521 52.3341C285.323 52.4676 285.924 52.6012 286.325 52.8016C286.592 52.9352 286.859 53.0688 287.06 53.1356Z" fill="#00adee"/>
<path d="M77.4518 62.0197C70.9725 55.4736 60.619 53.4697 51.6683 56.8764C46.1909 58.9471 40.3128 64.892 38.3089 70.4361C33.9003 82.2592 39.0436 95.6854 50.0651 101.096C53.5386 102.833 54.9413 103.1 60.8194 103.1C68.7015 103.1 72.6425 101.497 77.7858 96.3533C82.9292 91.21 84.5323 87.2022 84.5323 79.3869C84.5323 71.3045 82.996 67.5639 77.4518 62.0197ZM68.5679 96.6205C63.8253 98.8916 57.2124 98.6912 52.2026 96.1529C47.7272 93.8818 45.6565 91.7443 43.3854 86.8682C39.4444 78.1846 42.9847 67.4971 51.3343 63.0217C54.5405 61.285 57.6132 60.4166 60.6858 60.4166C63.2909 60.4166 65.896 61.0178 68.6347 62.2869C72.3753 63.9568 75.8487 67.2299 77.7858 70.9037C79.7229 74.4439 79.7897 84.2631 77.8526 87.8033C76.0491 91.2768 72.1749 94.9506 68.5679 96.6205Z" fill="#00adee"/>
<path d="M65.4961 71.3045C62.4234 69.5678 58.7496 69.7014 55.677 71.5717C52.6043 73.442 51.4688 75.4459 51.4688 79.053C51.4688 84.5971 55.4766 88.7385 60.8203 88.7385C66.0973 88.7385 70.1719 84.6639 70.1719 79.3869C70.1719 75.9803 68.4352 72.9076 65.4961 71.3045ZM58.0816 75.9135C58.616 75.5127 59.4176 75.3791 60.2859 75.3791C61.5551 75.3791 62.9578 75.7799 63.7594 76.5147L63.8262 76.5815C64.5609 77.2494 64.8949 78.1178 64.8949 79.3869C64.8949 81.9252 63.225 83.1276 61.6887 83.3948C59.8184 83.7287 57.5473 82.7936 56.6121 80.1217C56.2113 79.2534 57.0797 76.7151 58.0816 75.9135Z" fill="#00adee"/>
<path d="M261.009 61.6856C256.2 57.277 251.057 55.3399 244.31 55.4067C241.371 55.4067 238.098 55.8743 236.361 56.5422C227.143 60.2829 221.132 68.6325 220.597 78.2512C220.13 87.536 225.006 96.1528 233.355 100.628C237.029 102.565 238.766 103.033 243.442 103.3C243.976 103.3 244.577 103.367 245.112 103.367C251.324 103.367 256 101.497 260.675 97.3551C265.952 92.6126 268.825 86.2669 268.891 79.3868C268.891 72.7071 266.086 66.3614 261.009 61.6856ZM261.611 87.9368C259.74 91.811 256.734 94.5497 252.125 96.6872C249.32 97.9563 248.318 98.1567 243.642 97.8895C237.43 97.5555 234.291 96.086 230.283 91.477C227.277 88.0704 225.807 84.1293 225.807 79.32C225.807 74.377 227.277 70.5696 230.617 66.829C234.558 62.4204 238.966 60.2829 244.11 60.2829C246.18 60.2829 248.452 60.6168 250.789 61.2848C253.996 62.22 258.671 65.827 260.742 69.1001C264.282 74.711 264.616 81.7247 261.611 87.9368Z" fill="#00adee"/>
<path d="M245.113 70.0352C243.243 70.0352 240.905 70.6363 239.636 71.4379C237.231 72.9074 235.16 76.5813 235.16 79.3867C235.16 82.593 236.83 85.532 239.636 87.2687C241.172 88.2039 242.975 88.6715 244.712 88.6715C246.248 88.6715 247.718 88.3375 249.121 87.6027C252.461 85.9328 253.863 83.3945 253.863 79.1863C253.863 76.0469 253.396 74.9113 251.191 72.707C249.054 70.5695 247.852 70.0352 245.113 70.0352ZM241.639 82.1922C240.304 80.5223 240.437 78.5852 241.038 77.4496C241.639 76.1805 242.842 75.4457 244.245 75.4457C245.58 75.4457 246.783 75.7129 247.117 75.9133L247.184 75.9801C248.653 76.7148 249.388 79.2531 248.653 80.9898C247.918 82.7266 247.184 83.5281 244.311 83.5281C242.975 83.3945 242.374 83.1274 241.639 82.1922Z" fill="#00adee"/>
</svg>