<svg width="254" height="254" viewBox="0 0 254 254" fill="none" xmlns="http://www.w3.org/2000/svg">
<path d="M221.771 113.621C219.625 110.814 218.717 110.608 199.028 108.462L181.114 106.522L165.429 90.9604C153.871 79.5268 149.166 75.1515 147.556 74.2847L145.368 73.1289L100.789 73.0464C76.2711 73.0051 55.7566 73.1289 55.1787 73.294C53.1974 73.9132 50.6383 75.3991 49.3174 76.7612C47.5838 78.4949 31.0732 106.398 30.454 108.627C30.1651 109.741 30 117.295 30 131.205C30 150.688 30.0413 152.215 30.743 152.917C31.1145 153.288 35.4485 155.104 40.3191 156.879C45.1898 158.654 49.3174 160.223 49.4826 160.388C49.6477 160.553 50.1843 162.121 50.6383 163.896C51.6289 167.859 53.1149 170.666 55.7979 173.596C58.357 176.403 61.8243 178.673 65.4153 179.911C69.3366 181.232 75.6932 181.232 79.6145 179.911C87.003 177.352 92.9881 170.831 94.474 163.69L94.9694 161.254H154.243V162.204C154.243 163.607 155.729 167.694 157.008 169.881C159.609 174.298 164.355 178.178 169.432 179.911C173.354 181.232 179.71 181.232 183.631 179.911C191.02 177.352 197.005 170.831 198.491 163.69L198.986 161.254H210.585C222.184 161.254 222.225 161.254 223.092 160.305C224 159.356 224 159.356 224 138.717C223.959 116.593 223.959 116.469 221.771 113.621ZM35.7787 125.757H46.5106V126.995C46.5106 128.398 45.7677 129.224 41.8464 132.196C39.8238 133.682 39.0809 134.012 37.5949 134.012H35.7787V125.757ZM75.1153 175C69.9557 175.908 64.9613 174.298 60.9162 170.459C56.7885 166.538 54.9723 161.131 55.8804 155.682C56.4996 152.132 57.7792 149.532 60.2557 146.931C64.7136 142.185 70.6162 140.451 76.8077 142.061C79.986 142.886 82.2974 144.29 84.774 146.931C94.02 156.714 88.5302 172.729 75.1153 175ZM179.132 175C173.973 175.908 168.978 174.298 164.933 170.459C160.806 166.538 158.989 161.131 159.897 155.682C160.517 152.132 161.796 149.532 164.273 146.931C168.731 142.185 174.633 140.451 180.825 142.061C184.003 142.886 186.314 144.29 188.791 146.931C198.037 156.714 192.547 172.729 179.132 175ZM218.221 155.476H198.986L198.491 153.04C197.005 145.9 191.02 139.378 183.631 136.819C179.71 135.498 173.354 135.498 169.432 136.819C164.355 138.552 159.609 142.432 157.008 146.849C155.729 149.037 154.243 153.123 154.243 154.526V155.476H94.9694L94.474 153.04C92.9881 145.9 87.003 139.378 79.6145 136.819C75.6932 135.498 69.3366 135.498 65.4566 136.819C58.5221 139.213 53.0323 144.785 50.9685 151.472C50.4732 153.123 49.9366 154.237 49.6477 154.114C49.4 154.031 46.1804 152.875 42.5068 151.513L35.7787 149.078V139.791L37.9664 139.749C41.0621 139.708 42.4655 139.089 46.5106 135.869C51.5877 131.866 52.0417 131.123 52.2068 126.211C52.3719 122.702 52.2894 122.124 51.5464 121.216C50.7209 120.184 50.6383 120.184 43.2498 120.06L35.7787 119.895V115.396C35.7787 112.507 35.9851 110.402 36.3566 109.535C36.9345 108.131 51.34 83.5719 52.826 81.4255C53.28 80.8064 54.3945 79.8983 55.3438 79.4855C56.9536 78.7425 58.9762 78.7012 100.088 78.7012C137.98 78.7012 143.304 78.7838 144.666 79.3204C145.657 79.7744 150.775 84.5212 159.815 93.4783C167.327 100.908 174.633 108.131 176.119 109.535L178.802 112.053L196.345 113.951C206.003 114.983 214.589 116.057 215.414 116.263C217.437 116.841 218.221 118.038 218.221 120.597V122.702L209.883 121.794C205.26 121.257 199.647 120.721 197.335 120.556C193.29 120.267 193.166 120.308 192.506 121.257C192.093 121.794 191.804 122.537 191.804 122.908C191.804 123.321 192.919 126.293 194.281 129.554C197.005 136.117 198.863 138.47 201.958 139.337C202.825 139.584 206.87 139.791 210.915 139.791H218.221V155.476ZM218.221 131.329V134.012H210.915C202.247 134.012 202.33 134.053 200.514 129.554C199.523 127.201 199.399 126.582 199.894 126.582C200.225 126.582 204.063 126.954 208.439 127.408C219.253 128.563 218.221 128.151 218.221 131.329Z" fill="#00ADEE"/>
<path d="M56.2931 83.737C55.7152 84.2736 53.4863 87.6995 51.2986 91.3731C47.171 98.3901 46.6344 99.9999 48.0791 101.238C48.4918 101.568 54.0229 104.169 60.3382 107.017L71.8131 112.135H119.405H166.997L167.822 111.062C168.318 110.443 168.689 109.576 168.689 109.081C168.689 108.503 164.685 104.21 155.976 95.5008L143.222 82.8289H100.253H57.2837L56.2931 83.737ZM84.485 97.4821V106.357H78.7888H73.0927L63.8467 102.229C58.811 99.9587 54.5595 98.0187 54.4769 97.9361C54.3118 97.771 58.4808 90.2999 59.4301 89.1029C59.7191 88.7314 62.7735 88.6076 72.1433 88.6076H84.485V97.4821ZM116.639 90.1348C116.846 91.0016 117.795 94.6753 118.745 98.3076C119.694 101.94 120.561 105.242 120.643 105.614C120.85 106.315 119.942 106.357 105.577 106.357H90.2637V97.4821V88.6076H103.266H116.227L116.639 90.1348ZM149.702 97.4821L158.576 106.357H142.685H126.752L124.606 97.771C123.409 93.0655 122.418 89.1029 122.459 88.8965C122.459 88.7314 126.587 88.6076 131.664 88.6076H140.828L149.702 97.4821Z" fill="#00ADEE"/>
<path d="M122.542 118.038C121.345 119.276 121.386 120.597 122.665 121.835C123.615 122.826 123.904 122.867 128.651 122.867C133.397 122.867 133.686 122.826 134.636 121.835C135.915 120.597 135.957 119.152 134.718 117.997C133.851 117.171 133.315 117.088 128.609 117.088C123.739 117.088 123.367 117.13 122.542 118.038Z" fill="#00ADEE"/>
<path d="M69.4204 145.941C65.9532 146.849 62.6923 149.573 60.9174 152.999C59.5553 155.599 59.5553 160.553 60.8762 163.566C62.0732 166.208 64.6736 168.767 67.3566 170.005C70.246 171.326 74.7864 171.326 77.6757 170.005C82.3813 167.859 85.0642 163.648 85.0642 158.365C85.0642 153.082 82.34 148.83 77.717 146.766C75.5294 145.817 71.443 145.404 69.4204 145.941ZM75.1166 151.926C76.9328 152.669 79.0379 155.145 79.3681 156.92C79.8221 159.397 79.203 161.296 77.3042 163.153C74.3323 166.125 70.7 166.125 67.7281 163.153C64.9625 160.388 64.7562 156.796 67.274 153.948C69.4617 151.472 72.3098 150.729 75.1166 151.926Z" fill="#00ADEE"/>
<path d="M173.436 145.941C169.969 146.849 166.708 149.573 164.933 152.999C163.571 155.599 163.571 160.553 164.892 163.566C166.089 166.208 168.689 168.767 171.372 170.005C174.262 171.326 178.802 171.326 181.691 170.005C186.397 167.859 189.08 163.648 189.08 158.365C189.08 153.082 186.356 148.83 181.733 146.766C179.545 145.817 175.459 145.404 173.436 145.941ZM179.132 151.926C180.948 152.669 183.053 155.145 183.384 156.92C183.838 159.397 183.219 161.296 181.32 163.153C178.348 166.125 174.716 166.125 171.744 163.153C168.978 160.388 168.772 156.796 171.29 153.948C173.477 151.472 176.325 150.729 179.132 151.926Z" fill="#00ADEE"/>
<path d="M103.987 221.27C102.287 221.27 100.747 221.06 99.3674 220.64C97.9874 220.2 96.7874 219.58 95.7674 218.78L96.8174 216.32C97.4974 216.84 98.1974 217.27 98.9174 217.61C99.6574 217.95 100.437 218.21 101.257 218.39C102.097 218.55 103.007 218.63 103.987 218.63C105.667 218.63 106.897 218.33 107.677 217.73C108.477 217.13 108.877 216.34 108.877 215.36C108.877 214.52 108.597 213.87 108.037 213.41C107.497 212.95 106.537 212.58 105.157 212.3L101.887 211.64C99.9474 211.24 98.4974 210.59 97.5374 209.69C96.5974 208.77 96.1274 207.52 96.1274 205.94C96.1274 204.66 96.4674 203.54 97.1474 202.58C97.8274 201.62 98.7674 200.88 99.9674 200.36C101.187 199.84 102.607 199.58 104.227 199.58C105.727 199.58 107.107 199.8 108.367 200.24C109.627 200.66 110.687 201.29 111.547 202.13L110.527 204.5C109.627 203.72 108.667 203.15 107.647 202.79C106.627 202.41 105.467 202.22 104.167 202.22C102.627 202.22 101.417 202.54 100.537 203.18C99.6774 203.82 99.2474 204.69 99.2474 205.79C99.2474 206.67 99.5174 207.36 100.057 207.86C100.617 208.36 101.537 208.74 102.817 209L106.087 209.63C108.107 210.05 109.597 210.7 110.557 211.58C111.517 212.44 111.997 213.63 111.997 215.15C111.997 216.37 111.667 217.44 111.007 218.36C110.367 219.28 109.447 220 108.247 220.52C107.047 221.02 105.627 221.27 103.987 221.27ZM125.412 221.27C122.472 221.27 120.282 220.53 118.842 219.05C117.422 217.57 116.712 215.38 116.712 212.48V199.85H119.832V212.42C119.832 214.46 120.272 216 121.152 217.04C122.052 218.06 123.472 218.57 125.412 218.57C127.252 218.57 128.642 218.06 129.582 217.04C130.522 216 130.992 214.46 130.992 212.42V199.85H134.052V212.48C134.052 215.38 133.322 217.57 131.862 219.05C130.402 220.53 128.252 221.27 125.412 221.27ZM146.642 221L137.342 199.85H140.702L148.622 218.39H147.542L155.492 199.85H158.702L149.372 221H146.642Z" fill="#00ADEE"/>
</svg>
