<svg width="242" height="142" viewBox="0 0 242 142" fill="none" xmlns="http://www.w3.org/2000/svg">
<path d="M175.072 117.887H84.3223C82.0535 117.887 80.541 116.375 80.541 114.106C80.541 111.837 82.0535 110.325 84.3223 110.325H175.072C177.341 110.325 178.854 111.837 178.854 114.106C178.854 116.375 177.341 117.887 175.072 117.887Z" fill="#FBAD17"/>
<path d="M222.337 117.887C220.447 117.887 218.556 116.375 218.556 114.106C218.556 111.837 220.069 110.325 222.337 110.325L231.034 109.947C232.169 109.947 234.059 109.191 234.438 108.056C234.438 107.678 234.438 107.678 234.816 107.3C235.194 106.922 234.816 106.922 234.816 106.544V71.378C234.816 65.7061 232.925 60.4124 229.144 56.253L190.575 15.0374C186.416 10.4999 180.366 7.85303 173.938 7.85303H18.9062C12.4781 7.85303 7.5625 12.7686 7.5625 19.1968V102.762C7.5625 106.922 10.9656 110.325 15.125 110.325H37.4344C39.7031 110.325 41.2156 111.837 41.2156 114.106C41.2156 116.375 39.7031 117.887 37.4344 117.887H15.125C6.80625 117.887 0 111.081 0 102.762V19.1968C0 8.60927 8.31875 0.290527 18.9062 0.290527H173.938C182.256 0.290527 190.575 3.69365 195.869 9.74365L234.059 50.9593C238.975 56.253 242 63.8155 242 71.378V106.544C242 107.3 242 108.812 241.244 109.947C240.109 114.106 236.328 116.753 231.413 117.509L222.337 117.887Z" fill="#FBAD17"/>
<path d="M204.188 60.0343H156.922C152.762 60.0343 149.359 56.6312 149.359 52.4718V22.978C149.359 18.8187 152.762 15.4155 156.922 15.4155H173.938C177.719 15.4155 181.878 17.3062 184.903 20.3312L209.859 47.178C211.75 49.0687 212.506 52.0937 211.372 55.1187C210.238 58.1437 207.212 60.0343 204.188 60.0343ZM156.922 22.978V52.4718H204.188L204.566 52.0937L179.609 25.6249C178.097 24.1124 175.828 22.978 173.938 22.978H156.922ZM120.622 60.0343H22.6875C18.5281 60.0343 15.125 56.6312 15.125 52.4718V22.978C15.125 18.8187 18.5281 15.4155 22.6875 15.4155H132.722C135.369 15.4155 137.637 16.5499 139.15 18.8187C140.662 21.0874 140.662 23.7343 139.906 26.003L127.806 55.4968C127.806 55.8749 127.428 55.8749 127.428 56.253C124.781 59.6562 122.134 60.0343 120.622 60.0343ZM22.6875 22.978V52.4718H120.244L120.622 52.0937L132.722 22.978H22.6875ZM198.516 141.331C183.391 141.331 171.291 129.231 171.291 114.106C171.291 98.9812 183.391 86.8812 198.516 86.8812C213.641 86.8812 225.741 98.9812 225.741 114.106C225.741 129.231 213.641 141.331 198.516 141.331ZM198.516 94.4437C187.55 94.4437 178.853 103.141 178.853 114.106C178.853 125.072 187.55 133.769 198.516 133.769C209.481 133.769 218.178 125.072 218.178 114.106C218.178 103.141 209.481 94.4437 198.516 94.4437ZM60.8781 141.331C45.7531 141.331 33.6531 129.231 33.6531 114.106C33.6531 98.9812 45.7531 86.8812 60.8781 86.8812C76.0031 86.8812 88.1031 98.9812 88.1031 114.106C88.1031 129.231 76.0031 141.331 60.8781 141.331ZM60.8781 94.4437C49.9125 94.4437 41.2156 103.141 41.2156 114.106C41.2156 125.072 49.9125 133.769 60.8781 133.769C71.8438 133.769 80.5406 125.072 80.5406 114.106C80.5406 103.141 71.8438 94.4437 60.8781 94.4437ZM170.913 72.8905H161.459C159.191 72.8905 157.678 71.378 157.678 69.1093C157.678 66.8405 159.191 65.328 161.459 65.328H170.913C173.181 65.328 174.694 66.8405 174.694 69.1093C174.694 71.378 173.181 72.8905 170.913 72.8905ZM122.513 79.6968C120.244 79.6968 118.731 78.1843 118.731 75.9155V69.1093C118.731 66.8405 120.244 65.328 122.513 65.328C124.781 65.328 126.294 66.8405 126.294 69.1093V75.9155C126.294 78.1843 124.781 79.6968 122.513 79.6968Z" fill="#FBAD17"/>
</svg>
