<svg width="60" height="60" viewBox="0 0 60 60" fill="none" xmlns="http://www.w3.org/2000/svg">
<rect width="60" height="60" rx="14" fill="#E6F7EA"/>
<rect x="28.1055" y="17.6316" width="16.8421" height="2.10526" fill="#00ADEE"/>
<rect x="28.1055" y="28.9473" width="16.8421" height="2.10526" fill="#00ADEE"/>
<rect x="28.1055" y="40.2632" width="16.8421" height="2.10526" fill="#00ADEE"/>
<path fill-rule="evenodd" clip-rule="evenodd" d="M23.3684 41.3158C23.3684 43.3421 21.7105 45 19.6842 45C17.6579 45 16 43.3421 16 41.3158C16 39.2895 17.6579 37.6316 19.6842 37.6316C21.7105 37.6316 23.3684 39.2895 23.3684 41.3158ZM21.2632 41.3158C21.2632 40.4474 20.5526 39.7369 19.6842 39.7369C18.8158 39.7369 18.1053 40.4474 18.1053 41.3158C18.1053 42.1842 18.8158 42.8947 19.6842 42.8947C20.5526 42.8947 21.2632 42.1842 21.2632 41.3158Z" fill="#00ADEE"/>
<path fill-rule="evenodd" clip-rule="evenodd" d="M23.3684 29.9999C23.3684 32.0262 21.7105 33.6841 19.6842 33.6841C17.6579 33.6841 16 32.0262 16 29.9999C16 27.9736 17.6579 26.3157 19.6842 26.3157C21.7105 26.3157 23.3684 27.9736 23.3684 29.9999ZM21.2632 29.9999C21.2632 29.1315 20.5526 28.4209 19.6842 28.4209C18.8158 28.4209 18.1053 29.1315 18.1053 29.9999C18.1053 30.8683 18.8158 31.5788 19.6842 31.5788C20.5526 31.5788 21.2632 30.8683 21.2632 29.9999Z" fill="#00ADEE"/>
<path fill-rule="evenodd" clip-rule="evenodd" d="M23.3684 18.6842C23.3684 20.7105 21.7105 22.3684 19.6842 22.3684C17.6579 22.3684 16 20.7105 16 18.6842C16 16.6579 17.6579 15 19.6842 15C21.7105 15 23.3684 16.6579 23.3684 18.6842ZM21.2632 18.6842C21.2632 17.8158 20.5526 17.1053 19.6842 17.1053C18.8158 17.1053 18.1053 17.8158 18.1053 18.6842C18.1053 19.5526 18.8158 20.2632 19.6842 20.2632C20.5526 20.2632 21.2632 19.5526 21.2632 18.6842Z" fill="#00ADEE"/>
</svg>
