<svg width="38" height="38" viewBox="0 0 38 38" fill="none" xmlns="http://www.w3.org/2000/svg">
<rect width="38" height="38" rx="10" fill="#00ADEE" fill-opacity="0.14"/>
<path fill-rule="evenodd" clip-rule="evenodd" d="M19 7C25.6276 7 31 12.3724 31 19C31 25.6276 25.6276 31 19 31C12.3724 31 7 25.6276 7 19C7 12.3724 12.3724 7 19 7ZM19 8.4C13.1462 8.4 8.4 13.1462 8.4 19C8.4 24.8538 13.1462 29.6 19 29.6C24.8538 29.6 29.6 24.8538 29.6 19C29.6 13.1462 24.8538 8.4 19 8.4ZM24.5152 13.4848C24.2704 13.2388 23.884 13.2052 23.5996 13.4044C20.1328 15.838 18.1756 17.2792 17.7268 17.7268C17.0248 18.43 17.0248 19.57 17.7268 20.2732C18.43 20.9752 19.57 20.9752 20.2732 20.2732C20.5348 20.0104 21.9748 18.052 24.5908 14.3968C24.7912 14.116 24.76 13.7296 24.5152 13.4848ZM25.6 17.8C26.2624 17.8 26.8 18.3376 26.8 19C26.8 19.6624 26.2624 20.2 25.6 20.2C24.9376 20.2 24.4 19.6624 24.4 19C24.4 18.3376 24.9376 17.8 25.6 17.8ZM13.6 19C13.6 18.3376 13.0624 17.8 12.4 17.8C11.7376 17.8 11.2 18.3376 11.2 19C11.2 19.6624 11.7376 20.2 12.4 20.2C13.0624 20.2 13.6 19.6624 13.6 19ZM15.1816 13.4848C15.6496 13.9528 15.6496 14.7124 15.1816 15.1816C14.7136 15.6496 13.9528 15.6496 13.4848 15.1816C13.0168 14.7136 13.0168 13.9528 13.4848 13.4848C13.9528 13.0168 14.7124 13.0168 15.1816 13.4848ZM20.2 12.4C20.2 11.7376 19.6624 11.2 19 11.2C18.3376 11.2 17.8 11.7376 17.8 12.4C17.8 13.0624 18.3376 13.6 19 13.6C19.6624 13.6 20.2 13.0624 20.2 12.4Z" fill="#FBAD17"/>
</svg>
