<svg width="50" height="50" viewBox="0 0 50 50" fill="none" xmlns="http://www.w3.org/2000/svg">
<rect width="50" height="50" rx="14" fill="#C9ECFA"/>
<path d="M24.399 28.4272C21.8438 26.3261 20.1377 23.7334 19.2407 22.2582L18.5716 20.9968C18.8055 20.7458 20.5896 18.8355 21.3627 17.7989C22.3343 16.4974 20.9256 15.3219 20.9256 15.3219C20.9256 15.3219 16.9621 11.3578 16.0588 10.5714C15.1555 9.78399 14.1156 10.2213 14.1156 10.2213C12.2171 11.448 10.2489 12.5145 10.1309 17.6437C10.1265 22.4459 13.7719 27.3989 17.714 31.2334C21.6624 35.5639 27.0836 39.9043 32.3248 39.8993C37.4534 39.7823 38.5197 37.8145 39.7464 35.9159C39.7464 35.9159 40.184 34.8769 39.3974 33.9728C38.6102 33.069 34.6455 29.1045 34.6455 29.1045C34.6455 29.1045 33.4709 27.6956 32.169 28.668C31.1988 29.3933 29.4566 31.0064 29.0369 31.3975C29.0377 31.3989 26.1233 29.8452 24.399 28.4272Z" fill="#00ADEE"/>
</svg>
