<svg width="38" height="38" viewBox="0 0 38 38" fill="none" xmlns="http://www.w3.org/2000/svg">
<rect width="38" height="38" rx="10" fill="#00ADEE" fill-opacity="0.14"/>
<path fill-rule="evenodd" clip-rule="evenodd" d="M13.1667 8C11.4792 8 10.1111 9.42562 10.1111 11.1842V28.2632H9.83334C9.3731 28.2632 9 28.652 9 29.1316C9 29.6112 9.3731 30 9.83334 30H24.8336C25.2938 30 25.6669 29.6112 25.6669 29.1316C25.6669 28.652 25.2938 28.2632 24.8336 28.2632H24.5558V26.1756C24.9737 26.3998 25.4477 26.5263 25.95 26.5263C27.6344 26.5263 29 25.1033 29 23.3479V16.5878C29 15.8988 28.7856 15.2284 28.3889 14.6772L27.1667 12.979C26.8904 12.5953 26.3681 12.5175 26 12.8053C25.6318 13.093 25.5571 13.6374 25.8333 14.0211L27.0556 15.7193C27.2359 15.9698 27.3333 16.2745 27.3333 16.5878V23.3479C27.3333 24.1441 26.714 24.7895 25.95 24.7895C25.186 24.7895 24.5667 24.1441 24.5667 23.3479V21.3158C24.5667 21.268 24.5629 21.2211 24.5558 21.1753V11.1842C24.5558 9.42562 23.1878 8 21.5002 8H13.1667ZM13.4445 12.3421C13.4445 11.8625 13.8176 11.4737 14.2778 11.4737H20.389C20.8493 11.4737 21.2223 11.8625 21.2223 12.3421V17.5526C21.2223 18.0322 20.8493 18.4211 20.389 18.4211H14.2778C13.8176 18.4211 13.4445 18.0322 13.4445 17.5526V12.3421ZM15.1112 13.2105V16.6842H19.5557V13.2105H15.1112ZM11.7778 28.2632H22.8891V11.1842C22.8891 10.3848 22.2672 9.73684 21.5002 9.73684H13.1667C12.3997 9.73684 11.7778 10.3848 11.7778 11.1842V28.2632Z" fill="#FBAD17"/>
</svg>
