<svg width="17" height="18" viewBox="0 0 17 18" fill="none" xmlns="http://www.w3.org/2000/svg">
<g clip-path="url(#clip0_198_5150)">
<path d="M15.5231 11.3075C15.2918 11.3075 15.1042 11.5082 15.1042 11.7558V15.7362C15.1034 16.4786 14.5414 17.0803 13.8476 17.081H2.09438C1.40062 17.0803 0.83857 16.4786 0.837752 15.7362V4.05409C0.83857 3.31178 1.40062 2.71008 2.09438 2.70921H5.81354C6.0449 2.70921 6.23242 2.50853 6.23242 2.26092C6.23242 2.01348 6.0449 1.81262 5.81354 1.81262H2.09438C0.938217 1.81402 0.00130899 2.81673 0 4.05409V15.7363C0.00130899 16.9737 0.938217 17.9764 2.09438 17.9778H13.8476C15.0038 17.9764 15.9407 16.9737 15.942 15.7363V11.7558C15.942 11.5082 15.7545 11.3075 15.5231 11.3075Z" fill="black"/>
<path d="M15.7755 0.65924C15.0394 -0.128601 13.8459 -0.128601 13.1098 0.65924L5.63676 8.65707C5.58554 8.71188 5.54857 8.77983 5.52926 8.85443L4.54654 12.6514C4.50612 12.8071 4.54719 12.9738 4.65387 13.0882C4.76072 13.2023 4.91649 13.2463 5.06195 13.2032L8.6098 12.1513C8.6795 12.1306 8.74299 12.0911 8.7942 12.0363L16.267 4.03825C17.002 3.24988 17.002 1.97365 16.267 1.18528L15.7755 0.65924ZM6.54945 8.94846L12.6655 2.40268L14.638 4.51369L8.52177 11.0595L6.54945 8.94846ZM6.15544 9.79462L7.7313 11.4813L5.55151 12.1277L6.15544 9.79462ZM15.6747 3.40434L15.2305 3.87977L13.2578 1.76859L13.7022 1.29315C14.1111 0.855543 14.7741 0.855543 15.183 1.29315L15.6747 1.8192C16.083 2.25734 16.083 2.96637 15.6747 3.40434Z" fill="black"/>
</g>
<defs>
<clipPath id="clip0_198_5150">
<rect width="16.8188" height="18" fill="white"/>
</clipPath>
</defs>
</svg>
