<svg width="18" height="19" viewBox="0 0 18 19" fill="none" xmlns="http://www.w3.org/2000/svg">
<path d="M8.7526 9.15239C9.92746 9.15239 10.9447 8.70142 11.776 7.81167C12.6071 6.92206 13.0286 5.83356 13.0286 4.57605C13.0286 3.31897 12.6073 2.23033 11.7759 1.34043C10.9445 0.450966 9.92733 0 8.7526 0C7.5776 0 6.56054 0.450966 5.7293 1.34058C4.89807 2.23019 4.47656 3.31882 4.47656 4.57605C4.47656 5.83356 4.89807 6.9222 5.7293 7.81181C6.56081 8.70128 7.57801 9.15239 8.7526 9.15239ZM6.46505 2.12785C7.10287 1.44524 7.85107 1.11343 8.7526 1.11343C9.654 1.11343 10.4023 1.44524 11.0403 2.12785C11.6781 2.8106 11.9883 3.6115 11.9883 4.57605C11.9883 5.54089 11.6781 6.34164 11.0403 7.0244C10.4023 7.70715 9.654 8.03896 8.7526 8.03896C7.85134 8.03896 7.10314 7.70701 6.46505 7.0244C5.8271 6.34179 5.51693 5.54089 5.51693 4.57605C5.51693 3.6115 5.8271 2.8106 6.46505 2.12785Z" fill="black"/>
<path d="M16.2327 14.6101C16.2088 14.2398 16.1603 13.836 16.0889 13.4095C16.0168 12.9799 15.924 12.5737 15.813 12.2024C15.6981 11.8187 15.5422 11.4398 15.3492 11.0767C15.1492 10.6998 14.914 10.3716 14.6502 10.1016C14.3743 9.81903 14.0365 9.59188 13.6458 9.42619C13.2566 9.26138 12.8252 9.17788 12.3637 9.17788C12.1825 9.17788 12.0072 9.25746 11.6687 9.49331C11.4604 9.6387 11.2167 9.80685 10.9448 9.99284C10.7122 10.1514 10.3972 10.3 10.008 10.4345C9.62837 10.566 9.24289 10.6327 8.86228 10.6327C8.48195 10.6327 8.09647 10.566 7.71654 10.4345C7.32781 10.3001 7.01263 10.1516 6.78048 9.99298C6.51107 9.80874 6.26727 9.64059 6.05584 9.49316C5.71763 9.25732 5.54236 9.17773 5.36113 9.17773C4.89953 9.17773 4.46827 9.26138 4.07914 9.42634C3.68878 9.59174 3.35084 9.81889 3.07467 10.1017C2.81082 10.3719 2.57568 10.6999 2.37576 11.0767C2.18302 11.4398 2.02699 11.8186 1.91213 12.2026C1.8012 12.5738 1.70842 12.9799 1.63636 13.4095C1.56485 13.8354 1.51649 14.2394 1.49252 14.6105C1.46895 14.9733 1.45703 15.3509 1.45703 15.7325C1.45703 16.7243 1.75163 17.5272 2.33256 18.1194C2.90631 18.7037 3.66535 19 4.58868 19H13.137C14.06 19 14.8191 18.7037 15.393 18.1194C15.974 17.5276 16.2686 16.7244 16.2686 15.7323C16.2685 15.3495 16.2564 14.9719 16.2327 14.6101ZM14.6756 17.3127C14.2965 17.6988 13.7932 17.8866 13.1368 17.8866H4.58868C3.93218 17.8866 3.42886 17.6988 3.04988 17.3128C2.67808 16.934 2.49739 16.417 2.49739 15.7325C2.49739 15.3764 2.50837 15.0249 2.53031 14.6875C2.55171 14.3564 2.59546 13.9927 2.66034 13.6062C2.7244 13.2245 2.80594 12.8663 2.90292 12.5421C2.99597 12.2311 3.12288 11.9232 3.28027 11.6267C3.43048 11.344 3.60331 11.1015 3.79402 10.9061C3.9724 10.7233 4.19724 10.5737 4.46218 10.4615C4.7072 10.3577 4.98256 10.3009 5.28149 10.2923C5.31793 10.313 5.38281 10.3526 5.48791 10.426C5.70178 10.5751 5.94829 10.7453 6.22081 10.9316C6.528 11.1412 6.92378 11.3305 7.39662 11.4939C7.88003 11.6612 8.37305 11.7461 8.86242 11.7461C9.35179 11.7461 9.84495 11.6612 10.3281 11.494C10.8013 11.3304 11.197 11.1412 11.5046 10.9313C11.7835 10.7405 12.0231 10.5753 12.2369 10.426C12.342 10.3528 12.4069 10.313 12.4433 10.2923C12.7424 10.3009 13.0178 10.3577 13.2629 10.4615C13.5277 10.5737 13.7526 10.7234 13.931 10.9061C14.1217 11.1013 14.2945 11.3438 14.4447 11.6268C14.6022 11.9232 14.7293 12.2313 14.8222 12.5419C14.9193 12.8666 15.001 13.2247 15.0649 13.6061C15.1297 13.9933 15.1735 14.3571 15.1949 14.6876V14.6879C15.217 15.0241 15.2281 15.3754 15.2283 15.7325C15.2281 16.4171 15.0474 16.934 14.6756 17.3127Z" fill="black"/>
</svg>
