<svg width="25" height="25" viewBox="0 0 25 25" fill="none" xmlns="http://www.w3.org/2000/svg">
<path d="M21.3395 3.66101C16.4575 -1.22099 8.5435 -1.22099 3.6615 3.66101C-1.2205 8.54301 -1.2205 16.457 3.6615 21.339C8.5435 26.221 16.4575 26.221 21.3395 21.339C26.2215 16.457 26.2205 8.54301 21.3395 3.66101ZM17.8035 16.389C17.991 16.5765 18.0963 16.8308 18.0963 17.096C18.0963 17.3612 17.991 17.6155 17.8035 17.803C17.616 17.9905 17.3617 18.0959 17.0965 18.0959C16.8313 18.0959 16.577 17.9905 16.3895 17.803L12.5005 13.914L8.6115 17.803C8.51885 17.8962 8.40869 17.9701 8.28735 18.0206C8.16602 18.0711 8.03591 18.097 7.9045 18.097C7.77309 18.097 7.64298 18.0711 7.52165 18.0206C7.40031 17.9701 7.29015 17.8962 7.1975 17.803C7.10455 17.7102 7.03082 17.6 6.98051 17.4787C6.9302 17.3574 6.9043 17.2273 6.9043 17.096C6.9043 16.9647 6.9302 16.8346 6.98051 16.7133C7.03082 16.592 7.10455 16.4818 7.1975 16.389L11.0865 12.5L7.1975 8.61101C7.00999 8.4235 6.90465 8.16919 6.90465 7.90401C6.90465 7.63884 7.00999 7.38452 7.1975 7.19701C7.38501 7.0095 7.63932 6.90416 7.9045 6.90416C8.16968 6.90416 8.42399 7.0095 8.6115 7.19701L12.5005 11.086L16.3895 7.19701C16.4823 7.10417 16.5926 7.03052 16.7139 6.98027C16.8352 6.93002 16.9652 6.90416 17.0965 6.90416C17.2278 6.90416 17.3578 6.93002 17.4791 6.98027C17.6004 7.03052 17.7107 7.10417 17.8035 7.19701C17.8963 7.28986 17.97 7.40008 18.0202 7.52139C18.0705 7.64269 18.0963 7.77271 18.0963 7.90401C18.0963 8.03531 18.0705 8.16533 18.0202 8.28664C17.97 8.40795 17.8963 8.51817 17.8035 8.61101L13.9145 12.5L17.8035 16.389Z" fill="#760F22"/>
</svg>
