<svg width="28" height="24" viewBox="0 0 28 24" fill="none" xmlns="http://www.w3.org/2000/svg">
<path d="M23.6437 13.5694V18.8931C23.6437 20.2212 23.1722 21.3568 22.2291 22.2999C21.286 23.243 20.1504 23.7145 18.8223 23.7145H4.89369C3.56557 23.7145 2.42997 23.243 1.48689 22.2999C0.543806 21.3568 0.0722656 20.2212 0.0722656 18.8931V4.96449C0.0722656 3.63637 0.543806 2.50077 1.48689 1.55769C2.42997 0.614607 3.56557 0.143066 4.89369 0.143066H18.8223C19.5254 0.143066 20.1783 0.282575 20.781 0.561593C20.9484 0.639718 21.0488 0.768066 21.0823 0.946638C21.1158 1.13637 21.0656 1.2982 20.9316 1.43213L20.1113 2.25244C19.9997 2.36405 19.8714 2.41985 19.7263 2.41985C19.6928 2.41985 19.6426 2.40869 19.5756 2.38637C19.3189 2.31941 19.0678 2.28592 18.8223 2.28592H4.89369C4.15709 2.28592 3.52651 2.5482 3.00195 3.07275C2.4774 3.59731 2.21512 4.22789 2.21512 4.96449V18.8931C2.21512 19.6297 2.4774 20.2603 3.00195 20.7848C3.52651 21.3094 4.15709 21.5716 4.89369 21.5716H18.8223C19.5589 21.5716 20.1895 21.3094 20.714 20.7848C21.2386 20.2603 21.5008 19.6297 21.5008 18.8931V14.6408C21.5008 14.4957 21.5511 14.373 21.6515 14.2725L22.7229 13.2011C22.8345 13.0895 22.9629 13.0337 23.108 13.0337C23.1749 13.0337 23.2419 13.0504 23.3089 13.0839C23.5321 13.1732 23.6437 13.335 23.6437 13.5694ZM27.5109 5.38302L13.8836 19.0103C13.6158 19.2781 13.2977 19.412 12.9294 19.412C12.5611 19.412 12.243 19.2781 11.9752 19.0103L4.77651 11.8116C4.50865 11.5437 4.37472 11.2257 4.37472 10.8574C4.37472 10.489 4.50865 10.171 4.77651 9.90311L6.61802 8.06159C6.88588 7.79374 7.20396 7.65981 7.57227 7.65981C7.94057 7.65981 8.25865 7.79374 8.52651 8.06159L12.9294 12.4645L23.7609 1.63302C24.0287 1.36516 24.3468 1.23124 24.7151 1.23124C25.0834 1.23124 25.4015 1.36516 25.6694 1.63302L27.5109 3.47454C27.7787 3.7424 27.9127 4.06048 27.9127 4.42878C27.9127 4.79708 27.7787 5.11516 27.5109 5.38302Z" fill="#FBAD17"/>
</svg>
