<svg width="65" height="60" viewBox="0 0 65 60" fill="none" xmlns="http://www.w3.org/2000/svg">
<path d="M0 10C0 4.47715 4.47715 0 10 0H55C60.5228 0 65 4.47715 65 10V50C65 55.5228 60.5228 60 55 60H10C4.47715 60 0 55.5228 0 50V10Z" fill="#00ADEE"/>
<path d="M41.5938 20.6562L23.4688 31.0859C22.7656 31.4766 22.8438 32.4922 23.5469 32.7656L27.7266 34.5234L38.9375 24.6406C39.1328 24.4453 39.4453 24.7188 39.25 24.9531L29.875 36.3984V39.5625C29.875 40.5 30.9688 40.8516 31.5156 40.1875L34.0156 37.1406L38.8594 39.2109C39.4062 39.4453 40.0703 39.0938 40.1484 38.4688L42.9609 21.5938C43.1172 20.8125 42.2578 20.2656 41.5938 20.6562Z" fill="white"/>
</svg>
