<svg width="24" height="24" viewBox="0 0 24 24" fill="none" xmlns="http://www.w3.org/2000/svg">
<path d="M10.5581 15.7085L12.0778 16.3418L9.8821 18.2167L10.5581 15.7085ZM20.7498 7.08261L17.4962 15.7543C17.2624 16.2269 17.1301 16.637 16.9821 16.7933C16.9082 16.8738 16.8482 16.9125 16.6968 16.9391C16.5477 16.9639 16.2925 16.9543 15.9192 16.8573L11.189 14.8813L20.7498 7.08261ZM18.8661 5.85488L6.98823 13.1223L2.8501 11.3194C2.70263 11.2322 2.62716 11.1434 2.5997 11.0823C2.57036 11.0183 2.56903 10.9813 2.59676 10.9063C2.65383 10.7565 2.94236 10.4477 3.6309 10.2645C3.63463 10.2645 3.63756 10.2631 3.64183 10.2631L18.5192 5.95461L18.8661 5.85488ZM22.3157 3.82181C22.309 3.82181 22.3021 3.82181 22.2949 3.82181C22.2338 3.82608 22.1741 3.83994 22.1184 3.86474L18.2365 4.98874L3.3685 9.29354C3.36716 9.29354 3.36716 9.29488 3.3661 9.29488L3.35756 9.29621C2.4853 9.53168 1.87516 9.95301 1.64823 10.5557C1.53516 10.8594 1.54503 11.2058 1.67863 11.4983C1.81223 11.7922 2.05196 12.0261 2.35143 12.1981C2.36823 12.2079 2.38503 12.2159 2.40263 12.2231L6.61783 14.0607L7.58476 17.0362C7.6653 17.3079 7.95543 17.4618 8.22663 17.3743C8.49703 17.2855 8.64183 16.9933 8.54583 16.7258L7.6317 13.9098L20.2634 6.18048L9.89916 14.6333C9.89623 14.6357 9.8949 14.6373 9.89223 14.6399C9.7765 14.7287 9.7069 14.8645 9.6997 15.0098L8.4805 19.5306C8.3525 20.0087 8.92103 20.3637 9.2981 20.0434L9.31223 20.0322C9.31516 20.0298 9.31783 20.0269 9.3205 20.0239L13.1202 16.7781L15.5808 17.8053C15.6016 17.8149 15.6224 17.8221 15.6437 17.8274C16.117 17.9538 16.5114 17.9909 16.864 17.9314C17.2165 17.8719 17.517 17.6975 17.7208 17.4799C18.129 17.0447 18.2333 16.5391 18.4104 16.1855C18.4176 16.169 18.4245 16.1535 18.4301 16.1354L22.7696 4.57168C22.7696 4.57034 22.7696 4.57034 22.7696 4.56874C22.8384 4.44421 22.8493 4.29594 22.8018 4.16154C22.785 4.11434 22.7613 4.06874 22.7309 4.02848C22.7253 4.02128 22.7194 4.01461 22.7138 4.00741C22.7096 4.00074 22.7045 3.99514 22.6986 3.98981C22.693 3.98288 22.6861 3.97594 22.6794 3.97034C22.6738 3.96474 22.668 3.95941 22.6637 3.95354C22.657 3.94794 22.6496 3.94261 22.6413 3.93701C22.5498 3.86074 22.4344 3.82048 22.3157 3.82181Z" fill="white"/>
</svg>
